<?xml version="1.0" encoding="UTF-8"?>
<svg xmlns="http://www.w3.org/2000/svg" xmlns:xlink="http://www.w3.org/1999/xlink" width="200pt" height="200pt" viewBox="0 0 200 200" version="1.1">
<g id="surface1">
<path style=" stroke:none;fill-rule:nonzero;fill:#A3A3CD;fill-opacity:1;" d="M 120 152 L 34 152 C 27.382813 152 22 146.617188 22 140 L 22 44 C 22 37.382813 27.382813 32 34 32 L 120 32 C 126.617188 32 132 37.382813 132 44 L 132 140 C 132 146.617188 126.617188 152 120 152 Z "/>
<path style="fill:none;stroke-width:2;stroke-linecap:round;stroke-linejoin:round;stroke:#1F212B;stroke-opacity:1;stroke-miterlimit:4;" d="M 41.875 75 L 17 75 C 14.238281 75 12 72.761719 12 70 L 12 22 C 12 19.238281 14.238281 17 17 17 L 60 17 C 62.761719 17 65 19.238281 65 22 L 65 29 " transform="matrix(2,0,0,2,0,0)"/>
<path style=" stroke:none;fill-rule:nonzero;fill:#FEFDEF;fill-opacity:1;" d="M 117 72 L 37 72 C 36.449219 72 36 71.550781 36 71 L 36 47 C 36 46.449219 36.449219 46 37 46 L 117 46 C 117.550781 46 118 46.449219 118 47 L 118 71 C 118 71.550781 117.550781 72 117 72 Z "/>
<path style="fill:none;stroke-width:1;stroke-linecap:round;stroke-linejoin:round;stroke:#1F212B;stroke-opacity:1;stroke-miterlimit:4;" d="M 23.5 35.5 L 21.5 35.5 " transform="matrix(2,0,0,2,0,0)"/>
<path style="fill:none;stroke-width:1;stroke-linecap:round;stroke-linejoin:round;stroke:#1F212B;stroke-opacity:1;stroke-miterlimit:4;" d="M 18.5 35.5 L 18.5 23.5 L 58.5 23.5 L 58.5 35.5 L 26.5 35.5 " transform="matrix(2,0,0,2,0,0)"/>
<path style=" stroke:none;fill-rule:nonzero;fill:#1F212B;fill-opacity:1;" d="M 108 54 C 109.101563 54 110 54.898438 110 56 L 110 62 C 110 63.101563 109.101563 64 108 64 L 106 64 C 104.898438 64 104 63.101563 104 62 L 104 56 C 104 54.898438 104.898438 54 106 54 L 108 54 M 108 52 L 106 52 C 103.789063 52 102 53.789063 102 56 L 102 62 C 102 64.210938 103.789063 66 106 66 L 108 66 C 110.210938 66 112 64.210938 112 62 L 112 56 C 112 53.789063 110.210938 52 108 52 Z "/>
<path style="fill:none;stroke-width:1;stroke-linecap:butt;stroke-linejoin:miter;stroke:#1F212B;stroke-opacity:1;stroke-miterlimit:4;" d="M 55 27 L 52 32 " transform="matrix(2,0,0,2,0,0)"/>
<path style="fill-rule:nonzero;fill:#EBA272;fill-opacity:1;stroke-width:1;stroke-linecap:butt;stroke-linejoin:miter;stroke:#1F212B;stroke-opacity:1;stroke-miterlimit:4;" d="M 54.5 68.5 L 22.5 68.5 C 20.291016 68.5 18.5 66.708984 18.5 64.5 L 18.5 44.5 C 18.5 42.291016 20.291016 40.5 22.5 40.5 L 54.5 40.5 C 56.708984 40.5 58.5 42.291016 58.5 44.5 L 58.5 64.5 C 58.5 66.708984 56.708984 68.5 54.5 68.5 Z " transform="matrix(2,0,0,2,0,0)"/>
<path style="fill:none;stroke-width:1;stroke-linecap:round;stroke-linejoin:miter;stroke:#1F212B;stroke-opacity:1;stroke-miterlimit:4;" d="M 38.5 40.5 L 38.5 68.5 " transform="matrix(2,0,0,2,0,0)"/>
<path style="fill:none;stroke-width:1;stroke-linecap:round;stroke-linejoin:miter;stroke:#1F212B;stroke-opacity:1;stroke-miterlimit:4;" d="M 18.5 54.5 L 58.5 54.5 " transform="matrix(2,0,0,2,0,0)"/>
<path style="fill:none;stroke-width:1;stroke-linecap:round;stroke-linejoin:miter;stroke:#1F212B;stroke-opacity:1;stroke-miterlimit:4;" d="M 25.5 47.5 L 32.5 47.5 " transform="matrix(2,0,0,2,0,0)"/>
<path style="fill:none;stroke-width:1;stroke-linecap:round;stroke-linejoin:miter;stroke:#1F212B;stroke-opacity:1;stroke-miterlimit:4;" d="M 45.5 47.5 L 51.5 47.5 " transform="matrix(2,0,0,2,0,0)"/>
<path style="fill:none;stroke-width:1;stroke-linecap:round;stroke-linejoin:miter;stroke:#1F212B;stroke-opacity:1;stroke-miterlimit:4;" d="M 48.5 44.5 L 48.5 50.5 " transform="matrix(2,0,0,2,0,0)"/>
<path style="fill:none;stroke-width:1;stroke-linecap:round;stroke-linejoin:miter;stroke:#1F212B;stroke-opacity:1;stroke-miterlimit:4;" d="M 25.5 58.5 L 31.5 64.5 " transform="matrix(2,0,0,2,0,0)"/>
<path style="fill:none;stroke-width:1;stroke-linecap:round;stroke-linejoin:miter;stroke:#1F212B;stroke-opacity:1;stroke-miterlimit:4;" d="M 31.5 58.5 L 25.5 64.5 " transform="matrix(2,0,0,2,0,0)"/>
<path style="fill-rule:nonzero;fill:#F9E65C;fill-opacity:1;stroke-width:1;stroke-linecap:butt;stroke-linejoin:round;stroke:#1F212B;stroke-opacity:1;stroke-miterlimit:4;" d="M 88.5 79.5 C 88.5 80.605469 82.679688 81.5 75.5 81.5 C 68.320313 81.5 62.5 80.605469 62.5 79.5 C 62.5 78.394531 62.5 74.5 62.5 74.5 L 88.5 74.5 C 88.5 74.5 88.5 79.251953 88.5 79.5 Z " transform="matrix(2,0,0,2,0,0)"/>
<path style="fill-rule:nonzero;fill:#FEF6AA;fill-opacity:1;stroke-width:1;stroke-linecap:butt;stroke-linejoin:miter;stroke:#1F212B;stroke-opacity:1;stroke-miterlimit:4;" d="M 88.5 74.5 C 88.5 73.394531 82.679688 72.5 75.5 72.5 C 68.320313 72.5 62.5 73.394531 62.5 74.5 C 62.5 75.605469 68.320313 76.5 75.5 76.5 C 82.679688 76.5 88.5 75.605469 88.5 74.5 Z " transform="matrix(2,0,0,2,0,0)"/>
<path style="fill-rule:nonzero;fill:#F9E65C;fill-opacity:1;stroke-width:1;stroke-linecap:butt;stroke-linejoin:round;stroke:#1F212B;stroke-opacity:1;stroke-miterlimit:4;" d="M 88.5 71.5 C 88.5 72.605469 82.679688 73.5 75.5 73.5 C 68.320313 73.5 62.5 72.605469 62.5 71.5 C 62.5 70.394531 62.5 66.5 62.5 66.5 L 88.5 66.5 C 88.5 66.5 88.5 71.251953 88.5 71.5 Z " transform="matrix(2,0,0,2,0,0)"/>
<path style="fill-rule:nonzero;fill:#FEF6AA;fill-opacity:1;stroke-width:1;stroke-linecap:butt;stroke-linejoin:miter;stroke:#1F212B;stroke-opacity:1;stroke-miterlimit:4;" d="M 88.5 66.5 C 88.5 65.394531 82.679688 64.5 75.5 64.5 C 68.320313 64.5 62.5 65.394531 62.5 66.5 C 62.5 67.605469 68.320313 68.5 75.5 68.5 C 82.679688 68.5 88.5 67.605469 88.5 66.5 Z " transform="matrix(2,0,0,2,0,0)"/>
<path style="fill-rule:nonzero;fill:#F9E65C;fill-opacity:1;stroke-width:1;stroke-linecap:butt;stroke-linejoin:round;stroke:#1F212B;stroke-opacity:1;stroke-miterlimit:4;" d="M 88.5 63.5 C 88.5 64.605469 82.679688 65.5 75.5 65.5 C 68.320313 65.5 62.5 64.605469 62.5 63.5 C 62.5 62.394531 62.5 58.5 62.5 58.5 L 88.5 58.5 C 88.5 58.5 88.5 63.251953 88.5 63.5 Z " transform="matrix(2,0,0,2,0,0)"/>
<path style="fill-rule:nonzero;fill:#FEF6AA;fill-opacity:1;stroke-width:1;stroke-linecap:butt;stroke-linejoin:miter;stroke:#1F212B;stroke-opacity:1;stroke-miterlimit:4;" d="M 88.5 58.5 C 88.5 57.394531 82.679688 56.5 75.5 56.5 C 68.320313 56.5 62.5 57.394531 62.5 58.5 C 62.5 59.605469 68.320313 60.5 75.5 60.5 C 82.679688 60.5 88.5 59.605469 88.5 58.5 Z " transform="matrix(2,0,0,2,0,0)"/>
<path style="fill-rule:nonzero;fill:#F9E65C;fill-opacity:1;stroke-width:1;stroke-linecap:butt;stroke-linejoin:round;stroke:#1F212B;stroke-opacity:1;stroke-miterlimit:4;" d="M 88.5 55.5 C 88.5 56.605469 82.679688 57.5 75.5 57.5 C 68.320313 57.5 62.5 56.605469 62.5 55.5 C 62.5 54.394531 62.5 50.5 62.5 50.5 L 88.5 50.5 C 88.5 50.5 88.5 55.251953 88.5 55.5 Z " transform="matrix(2,0,0,2,0,0)"/>
<path style="fill-rule:nonzero;fill:#FEF6AA;fill-opacity:1;stroke-width:1;stroke-linecap:butt;stroke-linejoin:miter;stroke:#1F212B;stroke-opacity:1;stroke-miterlimit:4;" d="M 88.5 50.5 C 88.5 49.394531 82.679688 48.5 75.5 48.5 C 68.320313 48.5 62.5 49.394531 62.5 50.5 C 62.5 51.605469 68.320313 52.5 75.5 52.5 C 82.679688 52.5 88.5 51.605469 88.5 50.5 Z " transform="matrix(2,0,0,2,0,0)"/>
<path style="fill-rule:nonzero;fill:#F9E65C;fill-opacity:1;stroke-width:1;stroke-linecap:butt;stroke-linejoin:round;stroke:#1F212B;stroke-opacity:1;stroke-miterlimit:4;" d="M 88.5 47.5 C 88.5 48.605469 82.679688 49.5 75.5 49.5 C 68.320313 49.5 62.5 48.605469 62.5 47.5 C 62.5 46.394531 62.5 42.5 62.5 42.5 L 88.5 42.5 C 88.5 42.5 88.5 47.251953 88.5 47.5 Z " transform="matrix(2,0,0,2,0,0)"/>
<path style="fill-rule:nonzero;fill:#FEF6AA;fill-opacity:1;stroke-width:1;stroke-linecap:butt;stroke-linejoin:miter;stroke:#1F212B;stroke-opacity:1;stroke-miterlimit:4;" d="M 88.5 42.5 C 88.5 41.394531 82.679688 40.5 75.5 40.5 C 68.320313 40.5 62.5 41.394531 62.5 42.5 C 62.5 43.605469 68.320313 44.5 75.5 44.5 C 82.679688 44.5 88.5 43.605469 88.5 42.5 Z " transform="matrix(2,0,0,2,0,0)"/>
<path style="fill-rule:nonzero;fill:#F9E65C;fill-opacity:1;stroke-width:1;stroke-linecap:butt;stroke-linejoin:round;stroke:#1F212B;stroke-opacity:1;stroke-miterlimit:4;" d="M 88.5 39.5 C 88.5 40.605469 82.679688 41.5 75.5 41.5 C 68.320313 41.5 62.5 40.605469 62.5 39.5 C 62.5 38.394531 62.5 34.5 62.5 34.5 L 88.5 34.5 C 88.5 34.5 88.5 39.251953 88.5 39.5 Z " transform="matrix(2,0,0,2,0,0)"/>
<path style="fill-rule:nonzero;fill:#FEF6AA;fill-opacity:1;stroke-width:1;stroke-linecap:butt;stroke-linejoin:miter;stroke:#1F212B;stroke-opacity:1;stroke-miterlimit:4;" d="M 88.5 34.5 C 88.5 33.394531 82.679688 32.5 75.5 32.5 C 68.320313 32.5 62.5 33.394531 62.5 34.5 C 62.5 35.605469 68.320313 36.5 75.5 36.5 C 82.679688 36.5 88.5 35.605469 88.5 34.5 Z " transform="matrix(2,0,0,2,0,0)"/>
<path style="fill-rule:nonzero;fill:#F9E65C;fill-opacity:1;stroke-width:1;stroke-linecap:butt;stroke-linejoin:round;stroke:#1F212B;stroke-opacity:1;stroke-miterlimit:4;" d="M 71.5 81.5 C 71.5 82.605469 65.679688 83.5 58.5 83.5 C 51.320313 83.5 45.5 82.605469 45.5 81.5 C 45.5 80.394531 45.5 76.5 45.5 76.5 L 71.5 76.5 C 71.5 76.5 71.5 81.251953 71.5 81.5 Z " transform="matrix(2,0,0,2,0,0)"/>
<path style="fill-rule:nonzero;fill:#FEF6AA;fill-opacity:1;stroke-width:1;stroke-linecap:butt;stroke-linejoin:miter;stroke:#1F212B;stroke-opacity:1;stroke-miterlimit:4;" d="M 71.5 76.5 C 71.5 75.394531 65.679688 74.5 58.5 74.5 C 51.320313 74.5 45.5 75.394531 45.5 76.5 C 45.5 77.605469 51.320313 78.5 58.5 78.5 C 65.679688 78.5 71.5 77.605469 71.5 76.5 Z " transform="matrix(2,0,0,2,0,0)"/>
<path style="fill-rule:nonzero;fill:#F9E65C;fill-opacity:1;stroke-width:1;stroke-linecap:butt;stroke-linejoin:round;stroke:#1F212B;stroke-opacity:1;stroke-miterlimit:4;" d="M 71.5 73.5 C 71.5 74.605469 65.679688 75.5 58.5 75.5 C 51.320313 75.5 45.5 74.605469 45.5 73.5 C 45.5 72.394531 45.5 68.5 45.5 68.5 L 71.5 68.5 C 71.5 68.5 71.5 73.251953 71.5 73.5 Z " transform="matrix(2,0,0,2,0,0)"/>
<path style="fill-rule:nonzero;fill:#FEF6AA;fill-opacity:1;stroke-width:1;stroke-linecap:butt;stroke-linejoin:miter;stroke:#1F212B;stroke-opacity:1;stroke-miterlimit:4;" d="M 71.5 68.5 C 71.5 67.394531 65.679688 66.5 58.5 66.5 C 51.320313 66.5 45.5 67.394531 45.5 68.5 C 45.5 69.605469 51.320313 70.5 58.5 70.5 C 65.679688 70.5 71.5 69.605469 71.5 68.5 Z " transform="matrix(2,0,0,2,0,0)"/>
<path style="fill-rule:nonzero;fill:#F9E65C;fill-opacity:1;stroke-width:1;stroke-linecap:butt;stroke-linejoin:round;stroke:#1F212B;stroke-opacity:1;stroke-miterlimit:4;" d="M 71.5 65.5 C 71.5 66.605469 65.679688 67.5 58.5 67.5 C 51.320313 67.5 45.5 66.605469 45.5 65.5 C 45.5 64.394531 45.5 60.5 45.5 60.5 L 71.5 60.5 C 71.5 60.5 71.5 65.251953 71.5 65.5 Z " transform="matrix(2,0,0,2,0,0)"/>
<path style="fill-rule:nonzero;fill:#FEF6AA;fill-opacity:1;stroke-width:1;stroke-linecap:butt;stroke-linejoin:miter;stroke:#1F212B;stroke-opacity:1;stroke-miterlimit:4;" d="M 71.5 60.5 C 71.5 59.394531 65.679688 58.5 58.5 58.5 C 51.320313 58.5 45.5 59.394531 45.5 60.5 C 45.5 61.605469 51.320313 62.5 58.5 62.5 C 65.679688 62.5 71.5 61.605469 71.5 60.5 Z " transform="matrix(2,0,0,2,0,0)"/>
</g>
</svg>
