<?xml version="1.0" encoding="UTF-8"?>
<svg xmlns="http://www.w3.org/2000/svg" xmlns:xlink="http://www.w3.org/1999/xlink" width="100pt" height="100pt" viewBox="0 0 100 100" version="1.1">
<g id="surface1">
<path style=" stroke:none;fill-rule:nonzero;fill:#F1BC19;fill-opacity:1;" d="M 78 13 C 78 13.550781 77.550781 14 77 14 C 76.449219 14 76 13.550781 76 13 C 76 12.449219 76.449219 12 77 12 C 77.550781 12 78 12.449219 78 13 Z "/>
<path style=" stroke:none;fill-rule:nonzero;fill:#E4E4F9;fill-opacity:1;" d="M 87 50 C 87 70.433594 70.433594 87 50 87 C 29.566406 87 13 70.433594 13 50 C 13 29.566406 29.566406 13 50 13 C 70.433594 13 87 29.566406 87 50 Z "/>
<path style=" stroke:none;fill-rule:nonzero;fill:#F1BC19;fill-opacity:1;" d="M 87 15 C 87 17.210938 85.210938 19 83 19 C 80.789063 19 79 17.210938 79 15 C 79 12.789063 80.789063 11 83 11 C 85.210938 11 87 12.789063 87 15 Z "/>
<path style=" stroke:none;fill-rule:nonzero;fill:#8889B9;fill-opacity:1;" d="M 89 24 C 89 25.105469 88.105469 26 87 26 C 85.894531 26 85 25.105469 85 24 C 85 22.894531 85.894531 22 87 22 C 88.105469 22 89 22.894531 89 24 Z "/>
<path style=" stroke:none;fill-rule:nonzero;fill:#FBCD59;fill-opacity:1;" d="M 83 76 C 83 77.105469 82.105469 78 81 78 C 79.894531 78 79 77.105469 79 76 C 79 74.894531 79.894531 74 81 74 C 82.105469 74 83 74.894531 83 76 Z "/>
<path style=" stroke:none;fill-rule:nonzero;fill:#FBCD59;fill-opacity:1;" d="M 19 63 C 19 65.210938 17.210938 67 15 67 C 12.789063 67 11 65.210938 11 63 C 11 60.789063 12.789063 59 15 59 C 17.210938 59 19 60.789063 19 63 Z "/>
<path style=" stroke:none;fill-rule:nonzero;fill:#8889B9;fill-opacity:1;" d="M 27 87 C 27 88.105469 26.105469 89 25 89 C 23.894531 89 23 88.105469 23 87 C 23 85.894531 23.894531 85 25 85 C 26.105469 85 27 85.894531 27 87 Z "/>
<path style=" stroke:none;fill-rule:nonzero;fill:#FFFFFF;fill-opacity:1;" d="M 21 51.5 C 21 52.878906 19.878906 54 18.5 54 C 17.121094 54 16 52.878906 16 51.5 C 16 50.121094 17.121094 49 18.5 49 C 19.878906 49 21 50.121094 21 51.5 Z "/>
<path style=" stroke:none;fill-rule:nonzero;fill:#FFFFFF;fill-opacity:1;" d="M 81 33.5 C 81 34.328125 80.328125 35 79.5 35 C 78.671875 35 78 34.328125 78 33.5 C 78 32.671875 78.671875 32 79.5 32 C 80.328125 32 81 32.671875 81 33.5 Z "/>
<path style=" stroke:none;fill-rule:nonzero;fill:#60BE92;fill-opacity:1;" d="M 40.609375 76.683594 L 36.648438 70.671875 L 29.417969 72.109375 L 38.253906 50.5 L 49.445313 55.074219 Z "/>
<path style=" stroke:none;fill-rule:nonzero;fill:#472B29;fill-opacity:1;" d="M 40.753906 78.175781 L 36.320313 71.449219 L 28.277344 73.046875 L 37.871094 49.585938 L 50.355469 54.691406 Z M 36.972656 69.894531 L 40.464844 75.191406 L 48.53125 55.460938 L 38.636719 51.414063 L 30.558594 71.167969 Z "/>
<path style=" stroke:none;fill-rule:nonzero;fill:#60BE92;fill-opacity:1;" d="M 59.390625 76.683594 L 63.351563 70.671875 L 70.582031 72.109375 L 61.746094 50.5 L 50.554688 55.074219 Z "/>
<path style=" stroke:none;fill-rule:nonzero;fill:#472B29;fill-opacity:1;" d="M 59.246094 78.175781 L 49.644531 54.695313 L 62.128906 49.589844 L 71.722656 73.050781 L 63.679688 71.453125 Z M 51.46875 55.460938 L 59.535156 75.191406 L 63.027344 69.894531 L 69.441406 71.164063 L 61.359375 51.410156 Z "/>
<path style=" stroke:none;fill-rule:nonzero;fill:#FCBA7F;fill-opacity:1;" d="M 53.734375 61.648438 C 53.402344 61.648438 53.082031 61.578125 52.78125 61.429688 L 51.566406 60.84375 C 51.082031 60.609375 50.539063 60.484375 50 60.484375 C 49.460938 60.484375 48.917969 60.609375 48.433594 60.84375 L 47.21875 61.429688 C 46.917969 61.578125 46.597656 61.648438 46.265625 61.648438 C 45.613281 61.652344 45.003906 61.367188 44.585938 60.871094 L 43.714844 59.839844 C 43.03125 59.03125 42.027344 58.566406 40.96875 58.566406 C 40.96875 58.566406 39.503906 58.609375 39.5 58.609375 C 38.460938 58.609375 37.59375 57.960938 37.324219 57.027344 L 36.949219 55.730469 C 36.640625 54.671875 35.875 53.820313 34.851563 53.402344 L 33.601563 52.894531 C 32.671875 52.515625 32.117188 51.554688 32.253906 50.5625 L 32.4375 49.226563 C 32.589844 48.128906 32.238281 47.042969 31.472656 46.246094 L 30.535156 45.273438 C 29.84375 44.546875 29.726563 43.445313 30.253906 42.59375 L 30.964844 41.445313 C 31.550781 40.507813 31.667969 39.371094 31.292969 38.332031 L 30.835938 37.0625 C 30.496094 36.117188 30.839844 35.0625 31.667969 34.5 L 32.785156 33.742188 C 33.699219 33.121094 34.269531 32.132813 34.351563 31.027344 L 34.449219 29.683594 C 34.523438 28.683594 35.261719 27.859375 36.25 27.683594 L 37.578125 27.445313 C 38.667969 27.25 39.589844 26.578125 40.113281 25.601563 L 40.75 24.414063 C 41.132813 23.695313 41.875 23.253906 42.6875 23.253906 C 42.863281 23.253906 43.039063 23.273438 43.210938 23.316406 L 44.523438 23.636719 C 44.804688 23.707031 45.09375 23.742188 45.382813 23.742188 C 46.175781 23.742188 46.957031 23.472656 47.585938 22.984375 L 48.652344 22.160156 C 49.042969 21.859375 49.507813 21.699219 50 21.699219 C 50.492188 21.699219 50.957031 21.859375 51.347656 22.160156 L 52.414063 22.988281 C 53.039063 23.476563 53.824219 23.742188 54.617188 23.742188 C 54.90625 23.742188 55.195313 23.710938 55.476563 23.640625 L 56.789063 23.316406 C 56.960938 23.277344 57.136719 23.253906 57.3125 23.253906 C 58.121094 23.253906 58.863281 23.699219 59.246094 24.414063 L 59.886719 25.601563 C 60.40625 26.578125 61.332031 27.25 62.421875 27.445313 L 63.746094 27.683594 C 64.734375 27.859375 65.476563 28.683594 65.550781 29.683594 L 65.648438 31.03125 C 65.730469 32.132813 66.300781 33.121094 67.214844 33.742188 L 68.328125 34.5 C 69.160156 35.0625 69.503906 36.117188 69.160156 37.0625 L 68.703125 38.332031 C 68.328125 39.371094 68.449219 40.507813 69.03125 41.445313 L 69.742188 42.59375 C 70.273438 43.445313 70.15625 44.546875 69.460938 45.273438 L 68.527344 46.246094 C 67.761719 47.042969 67.40625 48.128906 67.558594 49.226563 L 67.742188 50.5625 C 67.878906 51.554688 67.324219 52.515625 66.394531 52.894531 L 65.144531 53.402344 C 64.121094 53.820313 63.359375 54.671875 63.050781 55.730469 L 62.675781 57.027344 C 62.402344 57.960938 61.535156 58.613281 60.566406 58.613281 L 59.03125 58.566406 C 57.96875 58.566406 56.96875 59.03125 56.285156 59.84375 L 55.414063 60.871094 C 54.996094 61.367188 54.386719 61.648438 53.734375 61.648438 Z "/>
<path style=" stroke:none;fill-rule:nonzero;fill:#472B29;fill-opacity:1;" d="M 50 22.398438 C 50.335938 22.398438 50.652344 22.507813 50.917969 22.714844 L 51.984375 23.539063 C 52.734375 24.121094 53.667969 24.441406 54.617188 24.441406 C 54.960938 24.441406 55.308594 24.402344 55.644531 24.316406 L 56.953125 23.996094 C 57.070313 23.96875 57.191406 23.953125 57.3125 23.953125 C 57.863281 23.953125 58.371094 24.257813 58.632813 24.742188 L 59.269531 25.933594 C 59.890625 27.097656 60.996094 27.898438 62.296875 28.132813 L 63.621094 28.371094 C 64.296875 28.492188 64.800781 29.050781 64.851563 29.734375 L 64.949219 31.078125 C 65.046875 32.398438 65.726563 33.578125 66.820313 34.320313 L 67.9375 35.078125 C 68.503906 35.460938 68.734375 36.179688 68.503906 36.824219 L 68.046875 38.09375 C 67.597656 39.335938 67.742188 40.691406 68.4375 41.816406 L 69.148438 42.960938 C 69.507813 43.542969 69.429688 44.292969 68.957031 44.785156 L 68.023438 45.761719 C 67.105469 46.714844 66.6875 48.011719 66.863281 49.320313 L 67.050781 50.65625 C 67.140625 51.335938 66.765625 51.988281 66.132813 52.246094 L 64.882813 52.753906 C 63.660156 53.253906 62.746094 54.265625 62.378906 55.535156 L 62 56.828125 C 61.816406 57.464844 61.226563 57.910156 60.519531 57.910156 C 60.515625 57.910156 60.515625 57.910156 60.515625 57.910156 L 59.167969 57.867188 L 59.03125 57.863281 C 57.765625 57.863281 56.566406 58.421875 55.75 59.386719 L 54.878906 60.417969 C 54.59375 60.757813 54.175781 60.949219 53.734375 60.949219 C 53.507813 60.949219 53.289063 60.898438 53.085938 60.800781 L 51.871094 60.214844 C 51.289063 59.933594 50.644531 59.785156 49.996094 59.785156 C 49.355469 59.785156 48.707031 59.933594 48.128906 60.214844 L 46.914063 60.800781 C 46.707031 60.898438 46.488281 60.949219 46.261719 60.949219 C 45.820313 60.949219 45.402344 60.757813 45.117188 60.417969 L 44.246094 59.386719 C 43.429688 58.417969 42.234375 57.863281 40.964844 57.863281 L 40.828125 57.867188 L 39.433594 57.910156 C 38.773438 57.910156 38.179688 57.464844 37.996094 56.828125 L 37.621094 55.535156 C 37.253906 54.265625 36.339844 53.253906 35.117188 52.753906 L 33.867188 52.246094 C 33.234375 51.988281 32.855469 51.332031 32.949219 50.65625 L 33.132813 49.320313 C 33.3125 48.011719 32.890625 46.714844 31.976563 45.761719 L 31.042969 44.785156 C 30.566406 44.292969 30.488281 43.542969 30.851563 42.960938 L 31.5625 41.816406 C 32.257813 40.691406 32.398438 39.335938 31.953125 38.09375 L 31.496094 36.824219 C 31.261719 36.179688 31.496094 35.464844 32.0625 35.078125 L 33.179688 34.320313 C 34.269531 33.578125 34.953125 32.398438 35.050781 31.078125 L 35.148438 29.734375 C 35.199219 29.054688 35.703125 28.492188 36.375 28.371094 L 37.703125 28.132813 C 39.003906 27.898438 40.109375 27.097656 40.730469 25.933594 L 41.367188 24.742188 C 41.628906 24.257813 42.136719 23.953125 42.6875 23.953125 C 42.808594 23.953125 42.925781 23.96875 43.046875 23.996094 L 44.355469 24.320313 C 44.691406 24.402344 45.035156 24.445313 45.382813 24.445313 C 46.328125 24.445313 47.265625 24.125 48.015625 23.542969 L 49.078125 22.714844 C 49.347656 22.507813 49.664063 22.398438 50 22.398438 M 50 21 C 49.371094 21 48.746094 21.203125 48.222656 21.609375 L 47.15625 22.433594 C 46.644531 22.832031 46.019531 23.042969 45.382813 23.042969 C 45.152344 23.042969 44.917969 23.015625 44.691406 22.960938 L 43.378906 22.636719 C 43.148438 22.578125 42.917969 22.554688 42.6875 22.554688 C 41.640625 22.554688 40.648438 23.125 40.136719 24.082031 L 39.496094 25.269531 C 39.078125 26.050781 38.328125 26.597656 37.457031 26.753906 L 36.128906 26.992188 C 34.828125 27.226563 33.847656 28.3125 33.753906 29.632813 L 33.652344 30.976563 C 33.589844 31.859375 33.125 32.664063 32.390625 33.160156 L 31.277344 33.921875 C 30.183594 34.664063 29.730469 36.054688 30.179688 37.296875 L 30.636719 38.566406 C 30.933594 39.398438 30.839844 40.324219 30.371094 41.074219 L 29.660156 42.222656 C 28.960938 43.347656 29.113281 44.800781 30.03125 45.753906 L 30.964844 46.726563 C 31.578125 47.367188 31.863281 48.25 31.746094 49.128906 L 31.5625 50.464844 C 31.382813 51.773438 32.113281 53.039063 33.335938 53.539063 L 34.585938 54.050781 C 35.40625 54.382813 36.027344 55.074219 36.273438 55.925781 L 36.648438 57.21875 C 37.011719 58.460938 38.144531 59.308594 39.429688 59.308594 C 39.460938 59.308594 39.492188 59.308594 39.523438 59.308594 L 40.871094 59.265625 C 40.902344 59.261719 40.933594 59.261719 40.964844 59.261719 C 41.816406 59.261719 42.625 59.636719 43.175781 60.289063 L 44.046875 61.320313 C 44.613281 61.988281 45.429688 62.347656 46.261719 62.347656 C 46.6875 62.347656 47.117188 62.253906 47.519531 62.058594 L 48.734375 61.472656 C 49.132813 61.28125 49.566406 61.183594 49.996094 61.183594 C 50.429688 61.183594 50.859375 61.28125 51.257813 61.472656 L 52.472656 62.058594 C 52.875 62.253906 53.308594 62.347656 53.734375 62.347656 C 54.566406 62.347656 55.382813 61.988281 55.945313 61.320313 L 56.816406 60.289063 C 57.367188 59.636719 58.179688 59.261719 59.03125 59.261719 C 59.0625 59.261719 59.09375 59.261719 59.121094 59.265625 L 60.46875 59.308594 C 60.5 59.308594 60.53125 59.308594 60.5625 59.308594 C 61.847656 59.308594 62.984375 58.460938 63.34375 57.21875 L 63.71875 55.925781 C 63.96875 55.074219 64.589844 54.382813 65.40625 54.050781 L 66.65625 53.539063 C 67.882813 53.039063 68.613281 51.773438 68.433594 50.464844 L 68.25 49.128906 C 68.128906 48.25 68.414063 47.367188 69.027344 46.726563 L 69.964844 45.753906 C 70.878906 44.800781 71.03125 43.347656 70.335938 42.222656 L 69.621094 41.074219 C 69.15625 40.324219 69.058594 39.398438 69.359375 38.566406 L 69.816406 37.296875 C 70.265625 36.054688 69.8125 34.664063 68.71875 33.921875 L 67.601563 33.160156 C 66.871094 32.664063 66.40625 31.859375 66.339844 30.976563 L 66.242188 29.632813 C 66.144531 28.3125 65.167969 27.226563 63.863281 26.992188 L 62.535156 26.753906 C 61.664063 26.597656 60.914063 26.050781 60.496094 25.269531 L 59.859375 24.082031 C 59.347656 23.125 58.355469 22.554688 57.304688 22.554688 C 57.078125 22.554688 56.84375 22.578125 56.613281 22.636719 L 55.304688 22.960938 C 55.074219 23.015625 54.84375 23.042969 54.613281 23.042969 C 53.976563 23.042969 53.347656 22.832031 52.835938 22.433594 L 51.769531 21.609375 C 51.253906 21.203125 50.628906 21 50 21 Z "/>
<path style=" stroke:none;fill-rule:nonzero;fill:#472B29;fill-opacity:1;" d="M 64.75 37.972656 C 64.535156 37.972656 64.339844 37.832031 64.273438 37.617188 C 64.207031 37.402344 64.136719 37.1875 64.058594 36.976563 C 63.765625 36.152344 63.390625 35.347656 62.953125 34.589844 C 62.8125 34.351563 62.894531 34.042969 63.132813 33.90625 C 63.371094 33.761719 63.679688 33.847656 63.816406 34.089844 C 64.285156 34.898438 64.683594 35.757813 65 36.636719 C 65.082031 36.863281 65.15625 37.09375 65.230469 37.324219 C 65.308594 37.589844 65.160156 37.867188 64.898438 37.949219 C 64.847656 37.964844 64.800781 37.972656 64.75 37.972656 Z "/>
<path style=" stroke:none;fill-rule:nonzero;fill:#472B29;fill-opacity:1;" d="M 34.890625 39.050781 C 34.855469 39.050781 34.816406 39.046875 34.78125 39.035156 C 34.511719 38.976563 34.34375 38.710938 34.402344 38.441406 C 36.003906 31.210938 42.5625 25.960938 50 25.960938 C 54.570313 25.960938 58.933594 27.917969 61.964844 31.332031 C 62.195313 31.59375 62.414063 31.855469 62.628906 32.128906 C 62.796875 32.347656 62.757813 32.660156 62.539063 32.832031 C 62.320313 33 62.007813 32.960938 61.839844 32.742188 C 61.640625 32.488281 61.433594 32.238281 61.214844 31.996094 C 58.375 28.796875 54.285156 26.960938 50 26.960938 C 43.027344 26.960938 36.878906 31.878906 35.378906 38.65625 C 35.324219 38.890625 35.121094 39.050781 34.890625 39.050781 Z "/>
<path style=" stroke:none;fill-rule:nonzero;fill:#472B29;fill-opacity:1;" d="M 50 57.8125 C 42.214844 57.8125 35.59375 52.269531 34.261719 44.632813 C 34.214844 44.359375 34.398438 44.101563 34.671875 44.054688 C 34.949219 43.996094 35.199219 44.1875 35.25 44.460938 C 36.496094 51.617188 42.699219 56.8125 50 56.8125 C 58.257813 56.8125 64.972656 50.117188 64.972656 41.886719 C 64.972656 41.136719 64.917969 40.382813 64.804688 39.644531 C 64.765625 39.375 64.953125 39.117188 65.226563 39.078125 C 65.503906 39.039063 65.753906 39.222656 65.796875 39.496094 C 65.914063 40.28125 65.972656 41.085938 65.972656 41.886719 C 65.972656 50.667969 58.808594 57.8125 50 57.8125 Z "/>
<path style=" stroke:none;fill-rule:nonzero;fill:#472B29;fill-opacity:1;" d="M 66.113281 68.707031 C 66.015625 68.707031 65.921875 68.648438 65.882813 68.550781 L 64.894531 66.109375 C 64.84375 65.984375 64.90625 65.839844 65.035156 65.785156 C 65.160156 65.730469 65.308594 65.796875 65.359375 65.925781 L 66.34375 68.363281 C 66.398438 68.492188 66.335938 68.636719 66.207031 68.6875 C 66.175781 68.699219 66.144531 68.707031 66.113281 68.707031 Z "/>
<path style=" stroke:none;fill-rule:nonzero;fill:#472B29;fill-opacity:1;" d="M 64.410156 64.484375 C 64.3125 64.484375 64.21875 64.425781 64.179688 64.328125 L 61.910156 58.710938 C 61.859375 58.585938 61.921875 58.4375 62.046875 58.386719 C 62.175781 58.332031 62.320313 58.394531 62.375 58.523438 L 64.640625 64.144531 C 64.695313 64.269531 64.632813 64.414063 64.503906 64.46875 C 64.472656 64.480469 64.441406 64.484375 64.410156 64.484375 Z "/>
<path style=" stroke:none;fill-rule:nonzero;fill:#472B29;fill-opacity:1;" d="M 39.847656 71.378906 C 39.8125 71.378906 39.78125 71.371094 39.746094 71.359375 C 39.621094 71.304688 39.5625 71.15625 39.617188 71.03125 L 40.644531 68.609375 C 40.699219 68.480469 40.847656 68.425781 40.972656 68.476563 C 41.101563 68.53125 41.160156 68.675781 41.105469 68.804688 L 40.074219 71.226563 C 40.035156 71.320313 39.941406 71.378906 39.847656 71.378906 Z "/>
<path style=" stroke:none;fill-rule:nonzero;fill:#472B29;fill-opacity:1;" d="M 41.625 67.1875 C 41.59375 67.1875 41.558594 67.183594 41.527344 67.167969 C 41.402344 67.113281 41.339844 66.96875 41.394531 66.839844 L 41.902344 65.644531 C 41.957031 65.519531 42.105469 65.464844 42.230469 65.511719 C 42.359375 65.566406 42.417969 65.714844 42.363281 65.839844 L 41.855469 67.035156 C 41.816406 67.132813 41.722656 67.1875 41.625 67.1875 Z "/>
<path style=" stroke:none;fill-rule:nonzero;fill:#472B29;fill-opacity:1;" d="M 42.703125 64.65625 C 42.667969 64.65625 42.636719 64.648438 42.605469 64.636719 C 42.476563 64.582031 42.417969 64.4375 42.472656 64.308594 L 43.765625 61.265625 C 43.820313 61.136719 43.96875 61.082031 44.09375 61.132813 C 44.21875 61.1875 44.28125 61.332031 44.226563 61.460938 L 42.933594 64.503906 C 42.890625 64.601563 42.800781 64.65625 42.703125 64.65625 Z "/>
<path style=" stroke:none;fill-rule:nonzero;fill:#FEFDEF;fill-opacity:1;" d="M 48.167969 48.785156 C 47.835938 48.785156 47.519531 48.664063 47.273438 48.445313 L 40.789063 42.074219 C 40.535156 41.847656 40.378906 41.523438 40.363281 41.171875 C 40.347656 40.824219 40.46875 40.488281 40.710938 40.226563 C 40.960938 39.957031 41.320313 39.800781 41.691406 39.800781 C 42.023438 39.800781 42.339844 39.921875 42.585938 40.140625 L 48.152344 45.675781 L 57.503906 36.449219 C 57.757813 36.214844 58.082031 36.089844 58.421875 36.089844 C 58.789063 36.089844 59.132813 36.234375 59.386719 36.496094 C 59.632813 36.753906 59.761719 37.085938 59.75 37.4375 C 59.742188 37.785156 59.59375 38.113281 59.332031 38.355469 L 49.082031 48.421875 C 48.832031 48.65625 48.507813 48.785156 48.167969 48.785156 Z "/>
<path style=" stroke:none;fill-rule:nonzero;fill:#472B29;fill-opacity:1;" d="M 58.421875 36.339844 C 58.707031 36.339844 58.992188 36.449219 59.203125 36.671875 C 59.613281 37.097656 59.59375 37.769531 59.160156 38.171875 L 48.90625 48.246094 C 48.699219 48.4375 48.433594 48.535156 48.167969 48.535156 C 47.90625 48.535156 47.648438 48.441406 47.441406 48.257813 L 40.964844 41.894531 C 40.523438 41.503906 40.492188 40.832031 40.894531 40.398438 C 41.105469 40.167969 41.398438 40.050781 41.691406 40.050781 C 41.953125 40.050781 42.210938 40.140625 42.417969 40.324219 L 48.152344 46.027344 L 57.679688 36.628906 C 57.886719 36.433594 58.152344 36.339844 58.421875 36.339844 M 58.421875 35.839844 C 58.015625 35.839844 57.632813 35.988281 57.339844 36.261719 L 48.152344 45.324219 L 42.769531 39.972656 C 42.460938 39.691406 42.082031 39.550781 41.691406 39.550781 C 41.25 39.550781 40.824219 39.734375 40.527344 40.054688 C 40.238281 40.363281 40.09375 40.765625 40.113281 41.183594 C 40.132813 41.601563 40.316406 41.984375 40.632813 42.265625 L 47.089844 48.613281 C 47.398438 48.890625 47.773438 49.03125 48.167969 49.03125 C 48.570313 49.03125 48.953125 48.882813 49.246094 48.609375 L 59.511719 38.523438 C 59.8125 38.25 59.988281 37.859375 60 37.441406 C 60.011719 37.023438 59.859375 36.628906 59.566406 36.324219 C 59.269531 36.015625 58.851563 35.839844 58.421875 35.839844 Z "/>
</g>
</svg>
