<?xml version="1.0" encoding="UTF-8"?>
<svg xmlns="http://www.w3.org/2000/svg" xmlns:xlink="http://www.w3.org/1999/xlink" width="96pt" height="96pt" viewBox="0 0 96 96" version="1.1">
<g id="surface1">
<path style=" stroke:none;fill-rule:nonzero;fill:#F6851F;fill-opacity:1;" d="M 39.675781 68.136719 C 37.914063 68.136719 36.1875 68.476563 34.445313 68.699219 C 32.304688 68.960938 30.226563 68.8125 28.085938 68.738281 C 23.738281 68.570313 19.367188 68.492188 15.074219 67.800781 C 13.480469 67.539063 11.867188 67.238281 10.292969 66.898438 C 10.070313 68.15625 9.730469 69.601563 10.105469 70.835938 C 10.5 72.132813 11.457031 72.957031 12.65625 73.519531 C 15.375 74.792969 18.394531 75.113281 21.355469 75.132813 C 23.195313 75.148438 25.03125 75.09375 26.867188 75.09375 C 28.519531 75.09375 30.148438 75.242188 31.800781 75.207031 C 33.488281 75.148438 35.136719 74.945313 36.804688 74.8125 C 38.15625 74.71875 39.5625 74.664063 40.855469 74.210938 C 40.929688 74.195313 40.988281 74.175781 41.0625 74.15625 C 40.273438 72.226563 39.863281 70.199219 39.675781 68.136719 Z "/>
<path style=" stroke:none;fill-rule:nonzero;fill:#F6851F;fill-opacity:1;" d="M 39.617188 60.242188 C 39.5625 60.261719 39.488281 60.28125 39.414063 60.28125 C 36.710938 60.449219 34.011719 60.789063 31.3125 60.976563 C 28.6875 61.164063 26.042969 61.105469 23.417969 60.917969 C 20.8125 60.75 18.226563 60.414063 15.695313 59.8125 C 13.894531 59.382813 12.226563 58.761719 10.539063 58.332031 C 9.617188 58.105469 8.230469 57.804688 7.050781 57.28125 C 6.863281 58.554688 6.789063 59.851563 6.976563 61.125 C 7.164063 62.4375 7.519531 63.65625 8.792969 64.257813 C 9.882813 64.761719 11.0625 64.914063 12.226563 65.136719 C 13.914063 65.4375 15.582031 65.8125 17.289063 66 C 21.300781 66.488281 25.351563 66.523438 29.382813 66.710938 C 31.273438 66.804688 33.074219 66.804688 34.949219 66.523438 C 36.46875 66.300781 37.988281 66.054688 39.523438 66.054688 C 39.449219 64.105469 39.523438 62.15625 39.601563 60.242188 C 39.617188 60.242188 39.617188 60.242188 39.617188 60.242188 Z "/>
<path style=" stroke:none;fill-rule:nonzero;fill:#FEBF10;fill-opacity:1;" d="M 37.011719 56.476563 C 35.175781 56.570313 33.355469 56.664063 31.519531 56.773438 C 27.46875 57 23.25 56.867188 19.425781 55.367188 C 17.773438 54.710938 16.085938 53.851563 14.605469 52.875 C 13.894531 52.40625 13.292969 51.824219 12.863281 51.113281 C 11.382813 51.226563 9.824219 51.863281 8.585938 52.648438 C 8.0625 52.988281 6.695313 54.054688 6.863281 54.636719 C 7.070313 54.75 7.21875 54.898438 7.3125 55.125 C 7.894531 55.554688 8.792969 55.761719 9.429688 55.949219 C 10.425781 56.230469 11.4375 56.417969 12.414063 56.757813 C 16.613281 58.238281 21.148438 58.875 25.59375 58.988281 C 30.1875 59.117188 34.6875 58.519531 39.261719 58.21875 C 39.675781 58.199219 39.957031 58.367188 40.144531 58.613281 C 40.273438 57.882813 40.40625 57.167969 40.632813 56.457031 C 40.707031 56.210938 40.78125 55.988281 40.855469 55.742188 C 39.636719 56.230469 38.289063 56.398438 37.011719 56.476563 Z "/>
<path style=" stroke:none;fill-rule:nonzero;fill:#FEBF10;fill-opacity:1;" d="M 42.148438 76.3125 C 42.074219 76.179688 42 76.070313 41.925781 75.9375 C 41.832031 76.03125 41.699219 76.105469 41.550781 76.164063 C 39.992188 76.707031 38.324219 76.761719 36.695313 76.894531 C 34.894531 77.042969 33.09375 77.269531 31.273438 77.289063 C 29.25 77.304688 27.226563 77.15625 25.199219 77.175781 C 23.230469 77.210938 21.28125 77.230469 19.3125 77.136719 C 18.507813 77.101563 17.664063 77.023438 16.820313 76.894531 C 16.949219 77.304688 16.855469 77.8125 16.460938 78.113281 C 16.460938 78.148438 16.445313 78.1875 16.445313 78.226563 C 16.445313 78.488281 16.460938 78.730469 16.480469 78.992188 C 16.554688 79.539063 16.6875 80.0625 16.835938 80.605469 C 17.15625 81.695313 17.585938 82.59375 18.601563 83.210938 C 21.207031 84.804688 24.542969 84.992188 27.507813 85.179688 C 31.125 85.40625 34.761719 85.273438 38.34375 84.769531 C 41.699219 84.300781 44.886719 83.382813 48.09375 82.332031 C 45.730469 80.699219 43.59375 78.730469 42.148438 76.3125 Z "/>
<path style=" stroke:none;fill-rule:nonzero;fill:#FEBF10;fill-opacity:1;" d="M 58.332031 53.175781 C 57.375 53.71875 56.457031 54.523438 56.175781 55.59375 C 55.855469 56.867188 56.082031 58.894531 57.335938 59.625 C 57.898438 59.960938 58.519531 60.148438 59.136719 60.242188 C 58.835938 57.898438 58.519531 55.554688 58.332031 53.175781 Z "/>
<path style=" stroke:none;fill-rule:nonzero;fill:#FEBF10;fill-opacity:1;" d="M 60.449219 16.988281 C 59.136719 16.460938 57.617188 16.351563 56.230469 16.238281 C 54.789063 16.125 53.34375 16.085938 51.917969 16.085938 C 48.992188 16.070313 46.085938 15.976563 43.164063 15.730469 C 40.105469 15.46875 37.070313 15.148438 34.011719 14.980469 C 31.707031 14.851563 29.382813 14.925781 27.074219 14.867188 C 25.59375 14.832031 24.132813 14.773438 22.648438 14.851563 C 21.113281 14.90625 19.5 15.019531 18.039063 15.542969 C 17.117188 15.882813 16.011719 16.425781 15.992188 17.550781 C 15.992188 17.699219 15.957031 17.832031 15.917969 17.945313 C 19.050781 18.507813 22.21875 18.957031 25.40625 19.21875 C 29.230469 19.539063 33 19.460938 36.824219 19.425781 C 40.613281 19.386719 44.398438 19.070313 48.1875 19.273438 C 51.675781 19.460938 55.257813 19.835938 58.707031 19.164063 C 59.476563 19.011719 60.261719 18.84375 60.976563 18.523438 C 61.125 18.46875 61.742188 18.226563 61.761719 18.019531 C 61.820313 17.570313 60.75 17.117188 60.449219 16.988281 Z "/>
<path style=" stroke:none;fill-rule:nonzero;fill:#FEBF10;fill-opacity:1;" d="M 61.96875 20.34375 C 60.675781 20.980469 59.007813 21.1875 57.863281 21.335938 C 55.03125 21.695313 52.179688 21.507813 49.351563 21.355469 C 43.386719 21.019531 37.445313 21.636719 31.480469 21.542969 C 25.707031 21.449219 19.949219 20.8125 14.269531 19.726563 C 13.855469 20.925781 13.742188 22.445313 14.136719 23.550781 C 14.476563 24.488281 15.113281 24.769531 16.050781 24.898438 C 17.195313 25.050781 18.335938 25.085938 19.480469 25.3125 C 22.351563 25.835938 25.105469 26.605469 28.050781 26.8125 C 31.070313 27.039063 34.125 27 37.144531 26.90625 C 40.179688 26.8125 43.199219 26.757813 46.238281 26.699219 C 49.144531 26.644531 52.085938 26.53125 54.957031 26.042969 C 56.082031 25.855469 57.1875 25.59375 58.3125 25.460938 C 59.210938 25.351563 60.167969 25.273438 60.992188 24.863281 C 62.382813 24.167969 62.53125 21.769531 61.96875 20.34375 Z "/>
<path style=" stroke:none;fill-rule:nonzero;fill:#FEBF10;fill-opacity:1;" d="M 57.617188 35.492188 C 54.992188 36.054688 52.292969 36.355469 49.632813 36.710938 C 46.6875 37.105469 43.742188 37.480469 40.78125 37.707031 C 35.25 38.136719 29.773438 37.914063 24.261719 37.445313 C 21.9375 37.238281 19.59375 36.957031 17.363281 36.1875 C 16.742188 35.980469 16.085938 35.71875 15.449219 35.398438 C 15.335938 35.457031 15.207031 35.492188 15.039063 35.511719 C 15.261719 35.492188 15.113281 35.457031 15 35.738281 C 14.925781 35.945313 14.867188 36.167969 14.832031 36.375 C 14.738281 36.917969 14.679688 37.480469 14.679688 38.023438 C 14.664063 39.019531 14.585938 40.238281 15.113281 41.117188 C 15.1875 41.25 15.28125 41.382813 15.375 41.492188 C 15.394531 41.492188 15.414063 41.492188 15.429688 41.492188 C 16.03125 41.492188 16.40625 41.925781 16.480469 42.394531 C 16.835938 42.601563 17.210938 42.75 17.605469 42.898438 C 19.332031 43.519531 21.167969 43.894531 22.96875 44.136719 C 27.054688 44.71875 31.199219 44.699219 35.324219 44.570313 C 37.164063 44.511719 39 44.4375 40.855469 44.363281 C 42.601563 44.289063 44.324219 44.15625 45.917969 43.40625 C 46.367188 43.199219 46.742188 43.332031 46.988281 43.632813 C 47.90625 42.542969 48.898438 41.53125 50.007813 40.59375 C 52.875 38.175781 56.382813 36.355469 60.054688 35.363281 L 60.054688 34.519531 C 59.324219 35.007813 58.519531 35.304688 57.617188 35.492188 Z "/>
<path style=" stroke:none;fill-rule:nonzero;fill:#F6851F;fill-opacity:1;" d="M 60.226563 27.75 C 60.113281 27.582031 60.054688 27.414063 60.054688 27.242188 C 59.304688 27.375 58.539063 27.46875 57.769531 27.582031 C 56.644531 27.730469 55.554688 28.03125 54.429688 28.179688 C 51.523438 28.59375 48.601563 28.726563 45.675781 28.742188 C 39.675781 28.800781 33.636719 29.304688 27.65625 28.820313 C 24.730469 28.574219 21.976563 27.804688 19.085938 27.320313 C 17.851563 27.113281 16.105469 27.1875 14.71875 26.757813 C 14.585938 26.851563 14.457031 26.980469 14.382813 27.132813 C 13.726563 28.425781 13.929688 30.167969 14.4375 31.480469 C 15.054688 33.113281 16.648438 33.824219 18.261719 34.3125 C 20.511719 35.007813 22.855469 35.269531 25.199219 35.4375 C 27.824219 35.644531 30.46875 35.867188 33.113281 35.886719 C 39.074219 35.945313 45 35.25 50.90625 34.425781 C 52.425781 34.21875 53.945313 34.011719 55.445313 33.769531 C 56.417969 33.617188 57.449219 33.507813 58.367188 33.113281 C 60.320313 32.363281 61.445313 29.605469 60.226563 27.75 Z "/>
<path style=" stroke:none;fill-rule:nonzero;fill:#F6851F;fill-opacity:1;" d="M 40.425781 46.5 C 38.195313 46.59375 35.980469 46.6875 33.75 46.726563 C 29.007813 46.820313 24.148438 46.742188 19.5 45.617188 C 17.90625 45.226563 16.273438 44.738281 15 43.875 C 14.210938 44.925781 13.988281 46.179688 14.082031 47.550781 C 14.136719 48.507813 14.230469 49.800781 14.960938 50.511719 C 15.789063 51.335938 16.875 51.75 17.867188 52.3125 C 19.292969 53.136719 20.832031 53.757813 22.425781 54.132813 C 25.761719 54.898438 29.195313 54.898438 32.585938 54.617188 C 34.105469 54.488281 35.625 54.507813 37.144531 54.394531 C 38.476563 54.28125 39.917969 54.132813 41.023438 53.324219 C 41.082031 53.289063 41.136719 53.25 41.195313 53.210938 C 41.417969 52.707031 41.664063 52.199219 41.90625 51.710938 C 42.898438 49.707031 44.023438 47.738281 45.300781 45.898438 C 43.726563 46.351563 42.054688 46.425781 40.425781 46.5 Z "/>
<path style=" stroke:none;fill-rule:nonzero;fill:#FEBF10;fill-opacity:1;" d="M 62.832031 51.917969 C 61.96875 51.976563 61.125 52.125 60.335938 52.367188 C 60.523438 55.03125 60.898438 57.695313 61.238281 60.355469 C 62.042969 60.320313 62.851563 60.242188 63.65625 60.226563 C 63.335938 57.449219 63.019531 54.695313 62.832031 51.917969 Z "/>
<path style=" stroke:none;fill-rule:nonzero;fill:#FEBF10;fill-opacity:1;" d="M 82.480469 52.707031 C 76.914063 44.980469 66.84375 40.085938 57.375 42.636719 C 53.15625 43.78125 49.332031 46.164063 46.554688 49.554688 C 45.1875 51.226563 44.0625 53.101563 43.257813 55.105469 C 42.824219 56.175781 42.488281 57.242188 42.242188 58.367188 C 42 59.53125 41.925781 60.710938 41.664063 61.855469 C 41.644531 61.929688 41.625 61.988281 41.605469 62.0625 C 41.4375 66.804688 41.53125 71.886719 44.34375 75.863281 C 46.96875 79.574219 51.167969 82.105469 55.40625 83.625 C 59.625 85.144531 64.257813 85.613281 68.664063 84.695313 C 73.199219 83.738281 77.210938 81.261719 80.210938 77.773438 C 86.117188 70.894531 88.03125 60.414063 82.480469 52.707031 Z M 63.226563 43.6875 C 64.707031 44.269531 66.242188 44.136719 67.574219 45.148438 C 68.644531 45.957031 67.273438 47.492188 66.207031 46.707031 C 65.15625 45.898438 63.523438 46.011719 62.304688 45.542969 C 61.070313 45.054688 61.988281 43.21875 63.226563 43.6875 Z M 44.738281 56.679688 C 45.507813 55.613281 47.0625 56.980469 46.292969 58.050781 C 45.675781 58.894531 45.636719 60.5625 45.9375 61.539063 C 46.3125 62.8125 44.363281 63.488281 43.988281 62.210938 C 43.460938 60.46875 43.667969 58.179688 44.738281 56.679688 Z M 45.976563 73.125 C 45.074219 71.53125 44.175781 69.804688 44.117188 67.929688 C 44.0625 66.601563 46.125 66.449219 46.179688 67.78125 C 46.238281 69.28125 46.96875 70.6875 47.699219 71.960938 C 48.335938 73.125 46.632813 74.289063 45.976563 73.125 Z M 48.488281 50.304688 C 49.96875 48.824219 51.507813 47.007813 53.605469 46.445313 C 54.882813 46.105469 55.574219 48.054688 54.28125 48.394531 C 52.539063 48.863281 51.261719 50.417969 50.023438 51.65625 C 49.105469 52.613281 47.550781 51.261719 48.488281 50.304688 Z M 54.019531 81.394531 C 52.875 80.289063 51.375 79.667969 50.082031 78.769531 C 48.992188 78.019531 50.363281 76.460938 51.449219 77.210938 C 52.761719 78.113281 54.226563 78.730469 55.386719 79.835938 C 56.34375 80.757813 54.992188 82.3125 54.019531 81.394531 Z M 65.851563 82.949219 L 61.164063 82.949219 C 59.832031 82.949219 59.679688 80.886719 61.011719 80.886719 L 65.699219 80.886719 C 67.011719 80.90625 67.179688 82.949219 65.851563 82.949219 Z M 69.355469 70.011719 C 68.664063 70.894531 67.707031 71.605469 66.675781 72.167969 C 66.789063 73.21875 66.957031 74.25 67.179688 75.28125 C 67.40625 75.429688 67.554688 75.675781 67.554688 76.03125 L 67.554688 76.78125 C 67.554688 77.886719 65.90625 78.394531 65.550781 77.195313 C 65.15625 75.824219 64.894531 74.417969 64.726563 72.992188 C 64.332031 73.125 63.917969 73.238281 63.523438 73.332031 C 62.90625 73.480469 62.289063 73.554688 61.667969 73.59375 C 61.726563 74.210938 61.855469 74.8125 62.117188 75.335938 C 62.71875 76.5 61.011719 77.679688 60.414063 76.5 C 59.945313 75.5625 59.738281 74.550781 59.644531 73.519531 C 58.613281 73.367188 57.617188 73.03125 56.679688 72.542969 C 55.835938 72.09375 55.988281 70.59375 57.054688 70.59375 L 57.429688 70.59375 C 57.824219 70.59375 58.105469 70.761719 58.273438 71.007813 C 58.707031 71.195313 59.15625 71.304688 59.625 71.398438 C 59.625 71.304688 59.625 71.195313 59.644531 71.101563 C 59.738281 68.960938 59.886719 66.9375 59.679688 64.820313 C 59.605469 63.976563 59.492188 63.132813 59.398438 62.289063 C 58.144531 62.210938 56.886719 61.929688 55.894531 61.125 C 54.542969 60.019531 53.925781 58.179688 53.960938 56.476563 C 54.039063 53.71875 55.800781 51.882813 58.179688 50.867188 C 58.164063 50.0625 58.144531 49.257813 58.164063 48.429688 C 58.199219 47.117188 60.242188 46.949219 60.226563 48.28125 C 60.207031 48.917969 60.207031 49.574219 60.226563 50.210938 C 61.03125 50.023438 61.875 49.914063 62.71875 49.875 C 62.679688 49.144531 62.664063 48.414063 62.664063 47.679688 C 62.664063 46.351563 64.707031 46.199219 64.726563 47.53125 C 64.726563 48.320313 64.742188 49.125 64.78125 49.914063 C 66.300781 50.042969 67.726563 50.417969 68.851563 51 C 70.03125 51.617188 69.113281 53.476563 67.929688 52.855469 C 67.011719 52.386719 65.980469 52.085938 64.914063 51.976563 C 65.117188 54.789063 65.4375 57.582031 65.773438 60.394531 C 66.242188 60.507813 66.695313 60.65625 67.125 60.898438 C 70.257813 62.605469 71.71875 67.03125 69.355469 70.011719 Z M 73.386719 46.835938 C 74.53125 47.738281 75.789063 48.65625 76.3125 50.082031 C 76.78125 51.335938 74.832031 52.011719 74.363281 50.757813 C 73.988281 49.726563 72.863281 49.03125 72.039063 48.375 C 70.988281 47.570313 72.355469 46.011719 73.386719 46.835938 Z M 78.320313 73.949219 C 77.71875 75.65625 76.59375 77.417969 74.925781 78.207031 C 73.726563 78.789063 73.050781 76.820313 74.25 76.257813 C 75.375 75.710938 76.085938 74.117188 76.480469 73.011719 C 76.667969 72.488281 77.398438 72.320313 77.867188 72.542969 C 78.394531 72.84375 78.507813 73.425781 78.320313 73.949219 Z M 80.175781 57.523438 C 79.742188 56.042969 78.320313 55.070313 77.925781 53.585938 C 77.585938 52.3125 79.539063 51.617188 79.875 52.914063 C 80.042969 53.550781 80.570313 54.09375 80.945313 54.617188 C 81.429688 55.3125 81.882813 56.023438 82.125 56.851563 C 82.480469 58.105469 80.53125 58.800781 80.175781 57.523438 Z M 81.113281 66.242188 C 81.636719 65.664063 81.242188 64.351563 81.226563 63.636719 C 81.207031 62.304688 83.269531 62.15625 83.289063 63.488281 C 83.304688 64.894531 83.679688 66.449219 82.648438 67.632813 C 81.789063 68.605469 80.230469 67.257813 81.113281 66.242188 Z "/>
<path style=" stroke:none;fill-rule:nonzero;fill:#F6851F;fill-opacity:1;" d="M 85.59375 49.164063 C 83.738281 45.636719 81.242188 42.355469 77.960938 40.050781 C 73.949219 37.257813 68.867188 36.148438 64.03125 36.730469 C 59.136719 37.332031 54.132813 39.46875 50.53125 42.898438 C 50.0625 43.332031 49.632813 43.800781 49.199219 44.269531 C 54.113281 40.726563 60.488281 39.074219 66.488281 40.179688 C 71.210938 41.042969 75.675781 43.273438 79.332031 46.367188 C 82.875 49.367188 85.894531 53.175781 87.113281 57.710938 C 88.855469 64.238281 87.320313 71.15625 83.625 76.667969 C 85.480469 74.738281 86.980469 72.488281 87.898438 69.824219 C 90.1875 63.1875 88.800781 55.292969 85.59375 49.164063 Z "/>
<path style=" stroke:none;fill-rule:nonzero;fill:#FEBF10;fill-opacity:1;" d="M 68.4375 66.167969 C 68.269531 64.667969 67.386719 63.28125 66.019531 62.625 C 66.019531 62.699219 66.039063 62.757813 66.039063 62.832031 C 66.28125 65.136719 66.335938 67.480469 66.46875 69.84375 C 67.707031 68.980469 68.625 67.820313 68.4375 66.167969 Z "/>
<path style=" stroke:none;fill-rule:nonzero;fill:#FEBF10;fill-opacity:1;" d="M 61.667969 71.550781 C 62.644531 71.492188 63.601563 71.269531 64.519531 70.894531 C 64.3125 68.269531 64.273438 65.605469 63.992188 63 C 63.957031 62.738281 63.9375 62.457031 63.898438 62.195313 C 63.09375 62.175781 62.289063 62.25 61.480469 62.304688 C 61.554688 62.980469 61.632813 63.636719 61.707031 64.3125 C 61.914063 66.394531 61.835938 68.34375 61.726563 70.425781 C 61.707031 70.78125 61.6875 71.15625 61.667969 71.550781 Z "/>
<path style=" stroke:none;fill-rule:nonzero;fill:#000000;fill-opacity:1;" d="M 67.125 60.882813 C 66.695313 60.636719 66.242188 60.488281 65.773438 60.375 C 65.457031 57.582031 65.117188 54.769531 64.914063 51.957031 C 66 52.085938 67.03125 52.367188 67.929688 52.835938 C 69.113281 53.457031 70.03125 51.601563 68.851563 50.980469 C 67.742188 50.398438 66.320313 50.023438 64.78125 49.894531 C 64.742188 49.105469 64.726563 48.300781 64.726563 47.511719 C 64.726563 46.179688 62.664063 46.351563 62.664063 47.664063 C 62.664063 48.394531 62.679688 49.125 62.71875 49.855469 C 61.875 49.894531 61.03125 50.007813 60.226563 50.195313 C 60.207031 49.554688 60.207031 48.898438 60.226563 48.261719 C 60.261719 46.929688 58.199219 47.101563 58.164063 48.414063 C 58.144531 49.21875 58.144531 50.042969 58.179688 50.851563 C 55.800781 51.882813 54.039063 53.699219 53.960938 56.457031 C 53.925781 58.164063 54.542969 60 55.894531 61.105469 C 56.886719 61.914063 58.144531 62.195313 59.398438 62.269531 C 59.511719 63.113281 59.605469 63.957031 59.679688 64.800781 C 59.886719 66.9375 59.738281 68.960938 59.644531 71.082031 C 59.644531 71.175781 59.644531 71.269531 59.625 71.382813 C 59.175781 71.289063 58.726563 71.15625 58.273438 70.988281 C 58.085938 70.742188 57.804688 70.574219 57.429688 70.574219 L 57.054688 70.574219 C 55.988281 70.574219 55.835938 72.074219 56.679688 72.523438 C 57.617188 73.03125 58.632813 73.351563 59.644531 73.5 C 59.71875 74.53125 59.925781 75.542969 60.414063 76.480469 C 61.011719 77.664063 62.71875 76.5 62.117188 75.320313 C 61.855469 74.792969 61.726563 74.210938 61.667969 73.574219 C 62.289063 73.539063 62.90625 73.460938 63.523438 73.3125 C 63.917969 73.21875 64.3125 73.105469 64.726563 72.976563 C 64.894531 74.398438 65.136719 75.789063 65.550781 77.175781 C 65.886719 78.355469 67.554688 77.867188 67.554688 76.761719 L 67.554688 76.011719 C 67.554688 75.65625 67.40625 75.414063 67.179688 75.261719 C 66.957031 74.230469 66.789063 73.199219 66.675781 72.148438 C 67.707031 71.585938 68.664063 70.875 69.355469 69.992188 C 71.71875 67.03125 70.257813 62.605469 67.125 60.882813 Z M 57.335938 59.644531 C 56.082031 58.914063 55.835938 56.886719 56.175781 55.613281 C 56.4375 54.542969 57.375 53.71875 58.332031 53.195313 C 58.519531 55.554688 58.835938 57.917969 59.15625 60.28125 C 58.519531 60.167969 57.917969 59.980469 57.335938 59.644531 Z M 60.335938 52.351563 C 61.144531 52.125 61.988281 51.976563 62.832031 51.898438 C 63.019531 54.675781 63.335938 57.429688 63.65625 60.1875 C 62.851563 60.207031 62.042969 60.28125 61.238281 60.320313 C 60.898438 57.675781 60.523438 55.03125 60.335938 52.351563 Z M 61.667969 71.550781 C 61.6875 71.15625 61.726563 70.78125 61.742188 70.425781 C 61.855469 68.34375 61.929688 66.394531 61.726563 64.3125 C 61.648438 63.636719 61.574219 62.980469 61.5 62.304688 C 62.289063 62.25 63.113281 62.175781 63.917969 62.195313 C 63.957031 62.457031 63.976563 62.738281 64.011719 63 C 64.292969 65.605469 64.351563 68.269531 64.539063 70.894531 C 63.601563 71.269531 62.625 71.492188 61.667969 71.550781 Z M 66.488281 69.84375 C 66.335938 67.5 66.300781 65.136719 66.054688 62.832031 C 66.054688 62.757813 66.039063 62.699219 66.039063 62.625 C 67.40625 63.28125 68.289063 64.648438 68.457031 66.167969 C 68.625 67.820313 67.707031 68.980469 66.488281 69.84375 Z "/>
<path style=" stroke:none;fill-rule:nonzero;fill:#000000;fill-opacity:1;" d="M 86.210938 46.070313 C 84.148438 42.675781 81.355469 39.695313 77.945313 37.613281 C 73.6875 35.007813 68.476563 34.125 63.5625 34.726563 C 63.074219 34.78125 62.585938 34.855469 62.117188 34.949219 L 62.117188 34.40625 C 62.117188 33.957031 61.742188 33.601563 61.332031 33.488281 C 61.574219 33.1875 61.820313 32.867188 62.007813 32.511719 C 62.960938 30.75 63.054688 28.367188 61.96875 26.664063 C 63 26.117188 63.710938 25.199219 64.03125 23.960938 C 64.445313 22.367188 64.40625 20.398438 63.542969 18.9375 C 63.617188 18.804688 63.675781 18.675781 63.710938 18.523438 C 64.292969 16.742188 62.289063 15.46875 60.898438 14.960938 C 58.273438 14.023438 55.199219 14.082031 52.445313 14.042969 C 50.082031 14.007813 47.71875 14.023438 45.375 13.855469 C 42.824219 13.667969 40.292969 13.425781 37.742188 13.199219 C 33.882813 12.882813 30.019531 12.898438 26.136719 12.789063 C 22.667969 12.695313 15.1875 12.28125 14.0625 16.648438 C 12.636719 17.511719 12.132813 19.199219 11.960938 20.8125 C 11.773438 22.480469 11.886719 24.261719 12.957031 25.613281 C 11.25 27.523438 11.90625 31.179688 12.976563 33.242188 C 13.144531 33.5625 13.351563 33.84375 13.59375 34.105469 C 12.300781 35.511719 12.488281 38.832031 12.730469 40.332031 C 12.863281 41.136719 13.125 41.8125 13.5 42.375 C 12.898438 43.03125 12.542969 43.855469 12.28125 44.699219 C 11.851563 46.070313 11.90625 47.664063 12.1875 49.085938 C 10.667969 49.292969 9.207031 49.949219 7.875 50.664063 C 6.542969 51.394531 5.082031 52.613281 4.820313 54.1875 C 4.707031 54.863281 4.855469 55.445313 5.175781 55.914063 C 4.574219 58.949219 4.273438 62.980469 6.582031 65.269531 C 7.050781 65.738281 7.648438 66.074219 8.269531 66.320313 C 7.800781 69.394531 7.519531 72.46875 10.332031 74.53125 C 11.699219 75.523438 13.351563 76.164063 15.054688 76.554688 C 14.34375 77.15625 14.269531 78.167969 14.382813 79.125 C 14.511719 80.289063 14.8125 81.65625 15.375 82.6875 C 17.007813 85.726563 20.851563 86.476563 23.960938 86.867188 C 28.199219 87.394531 32.511719 87.414063 36.769531 86.980469 C 41.117188 86.550781 45.242188 85.386719 49.386719 84.019531 C 49.726563 83.90625 49.914063 83.699219 50.007813 83.457031 C 51.039063 84.019531 52.085938 84.542969 53.15625 84.992188 C 58.332031 87.1875 64.125 87.804688 69.507813 86.570313 C 69.75 86.867188 70.125 87.019531 70.59375 86.851563 C 78.9375 83.644531 87.355469 78.710938 90.113281 69.636719 C 92.492188 61.835938 90.355469 52.875 86.210938 46.070313 Z M 15.976563 17.53125 C 15.992188 16.40625 17.101563 15.863281 18.019531 15.523438 C 19.480469 15 21.09375 14.90625 22.632813 14.832031 C 24.113281 14.773438 25.574219 14.8125 27.054688 14.851563 C 29.363281 14.925781 31.6875 14.851563 33.992188 14.960938 C 37.050781 15.132813 40.105469 15.449219 43.144531 15.710938 C 46.070313 15.957031 48.957031 16.050781 51.898438 16.070313 C 53.34375 16.070313 54.789063 16.105469 56.210938 16.21875 C 57.601563 16.332031 59.136719 16.445313 60.429688 16.96875 C 60.730469 17.101563 61.800781 17.550781 61.726563 17.960938 C 61.6875 18.167969 61.070313 18.394531 60.9375 18.46875 C 60.226563 18.789063 59.417969 18.957031 58.667969 19.105469 C 55.21875 19.78125 51.636719 19.40625 48.148438 19.21875 C 44.363281 19.011719 40.574219 19.332031 36.789063 19.367188 C 32.960938 19.40625 29.195313 19.480469 25.367188 19.164063 C 22.179688 18.898438 19.03125 18.46875 15.882813 17.886719 C 15.957031 17.8125 15.976563 17.679688 15.976563 17.53125 Z M 14.269531 19.726563 C 19.949219 20.8125 25.707031 21.449219 31.480469 21.542969 C 37.445313 21.636719 43.386719 21.019531 49.351563 21.355469 C 52.179688 21.507813 55.03125 21.695313 57.863281 21.335938 C 59.023438 21.1875 60.695313 20.980469 61.96875 20.34375 C 62.53125 21.769531 62.382813 24.167969 61.011719 24.84375 C 60.1875 25.238281 59.230469 25.332031 58.332031 25.445313 C 57.207031 25.59375 56.101563 25.835938 54.976563 26.023438 C 52.085938 26.511719 49.164063 26.644531 46.257813 26.679688 C 43.21875 26.738281 40.199219 26.773438 37.164063 26.886719 C 34.125 26.980469 31.085938 27.019531 28.070313 26.792969 C 25.144531 26.570313 22.386719 25.820313 19.5 25.292969 C 18.355469 25.085938 17.210938 25.050781 16.070313 24.882813 C 15.132813 24.75 14.476563 24.46875 14.15625 23.53125 C 13.742188 22.445313 13.855469 20.925781 14.269531 19.726563 Z M 40.875 44.417969 C 39.039063 44.511719 37.199219 44.570313 35.34375 44.625 C 31.21875 44.738281 27.074219 44.773438 22.988281 44.195313 C 21.1875 43.929688 19.332031 43.574219 17.625 42.957031 C 17.230469 42.804688 16.855469 42.65625 16.5 42.449219 C 16.40625 41.980469 16.050781 41.550781 15.449219 41.550781 C 15.429688 41.550781 15.414063 41.550781 15.394531 41.550781 C 15.300781 41.4375 15.207031 41.304688 15.132813 41.175781 C 14.605469 40.292969 14.664063 39.074219 14.699219 38.082031 C 14.71875 37.519531 14.757813 36.976563 14.851563 36.429688 C 14.886719 36.226563 14.925781 36 15.019531 35.792969 C 15.132813 35.511719 15.28125 35.550781 15.054688 35.570313 C 15.207031 35.550781 15.335938 35.511719 15.46875 35.457031 C 16.105469 35.773438 16.761719 36.039063 17.382813 36.242188 C 19.613281 37.011719 21.9375 37.3125 24.28125 37.5 C 29.792969 37.96875 35.269531 38.195313 40.800781 37.761719 C 43.761719 37.539063 46.707031 37.164063 49.648438 36.769531 C 52.3125 36.414063 55.011719 36.113281 57.636719 35.550781 C 58.519531 35.363281 59.34375 35.0625 60.074219 34.632813 L 60.074219 35.476563 C 56.398438 36.46875 52.894531 38.289063 50.023438 40.707031 C 48.9375 41.625 47.925781 42.65625 47.007813 43.742188 C 46.78125 43.445313 46.40625 43.3125 45.9375 43.519531 C 44.34375 44.210938 42.601563 44.324219 40.875 44.417969 Z M 45.300781 45.898438 C 44.007813 47.738281 42.898438 49.707031 41.90625 51.710938 C 41.664063 52.21875 41.417969 52.707031 41.195313 53.210938 C 41.136719 53.25 41.082031 53.269531 41.023438 53.324219 C 39.917969 54.132813 38.476563 54.28125 37.144531 54.394531 C 35.625 54.507813 34.105469 54.507813 32.585938 54.617188 C 29.195313 54.898438 25.761719 54.898438 22.425781 54.132813 C 20.8125 53.757813 19.292969 53.136719 17.867188 52.3125 C 16.875 51.730469 15.789063 51.320313 14.960938 50.511719 C 14.230469 49.78125 14.136719 48.488281 14.082031 47.550781 C 13.988281 46.179688 14.210938 44.925781 15 43.875 C 16.273438 44.757813 17.925781 45.242188 19.5 45.617188 C 24.148438 46.742188 29.007813 46.820313 33.75 46.726563 C 35.980469 46.6875 38.195313 46.59375 40.425781 46.5 C 42.054688 46.425781 43.726563 46.351563 45.300781 45.898438 Z M 58.367188 33.148438 C 57.449219 33.523438 56.417969 33.636719 55.445313 33.804688 C 53.925781 34.050781 52.40625 34.257813 50.90625 34.460938 C 45.019531 35.304688 39.074219 35.980469 33.113281 35.925781 C 30.46875 35.90625 27.824219 35.664063 25.199219 35.476563 C 22.855469 35.289063 20.511719 35.023438 18.261719 34.351563 C 16.648438 33.863281 15.054688 33.132813 14.4375 31.519531 C 13.929688 30.207031 13.726563 28.445313 14.382813 27.167969 C 14.457031 27.019531 14.570313 26.886719 14.71875 26.792969 C 16.105469 27.226563 17.851563 27.148438 19.085938 27.355469 C 21.976563 27.84375 24.710938 28.632813 27.65625 28.855469 C 33.65625 29.34375 39.675781 28.835938 45.675781 28.78125 C 48.601563 28.761719 51.542969 28.632813 54.429688 28.21875 C 55.554688 28.050781 56.644531 27.769531 57.769531 27.617188 C 58.539063 27.507813 59.289063 27.429688 60.054688 27.28125 C 60.074219 27.449219 60.113281 27.617188 60.226563 27.789063 C 61.445313 29.605469 60.320313 32.363281 58.367188 33.148438 Z M 8.585938 52.632813 C 9.824219 51.84375 11.382813 51.207031 12.863281 51.09375 C 13.273438 51.804688 13.894531 52.386719 14.605469 52.855469 C 16.085938 53.832031 17.773438 54.710938 19.425781 55.351563 C 23.25 56.851563 27.46875 56.980469 31.519531 56.757813 C 33.355469 56.644531 35.175781 56.550781 37.011719 56.457031 C 38.289063 56.382813 39.636719 56.230469 40.835938 55.742188 C 40.761719 55.96875 40.6875 56.210938 40.613281 56.457031 C 40.386719 57.167969 40.257813 57.882813 40.125 58.613281 C 39.9375 58.351563 39.65625 58.179688 39.242188 58.21875 C 34.667969 58.519531 30.167969 59.101563 25.574219 58.988281 C 21.132813 58.875 16.59375 58.238281 12.394531 56.757813 C 11.417969 56.417969 10.40625 56.210938 9.414063 55.949219 C 8.773438 55.78125 7.894531 55.554688 7.292969 55.125 C 7.21875 54.917969 7.050781 54.75 6.84375 54.636719 C 6.695313 54.039063 8.0625 52.988281 8.585938 52.632813 Z M 8.792969 64.273438 C 7.5 63.675781 7.164063 62.457031 6.976563 61.144531 C 6.789063 59.867188 6.863281 58.574219 7.050781 57.300781 C 8.230469 57.824219 9.636719 58.125 10.539063 58.351563 C 12.226563 58.78125 13.894531 59.398438 15.695313 59.832031 C 18.226563 60.429688 20.832031 60.769531 23.417969 60.9375 C 26.042969 61.105469 28.6875 61.164063 31.3125 60.992188 C 34.011719 60.804688 36.710938 60.46875 39.414063 60.300781 C 39.488281 60.300781 39.5625 60.28125 39.617188 60.261719 C 39.617188 60.261719 39.617188 60.28125 39.617188 60.28125 C 39.542969 62.195313 39.46875 64.144531 39.542969 66.09375 C 38.007813 66.09375 36.488281 66.335938 34.96875 66.5625 C 33.09375 66.84375 31.292969 66.824219 29.398438 66.75 C 25.367188 66.5625 21.320313 66.523438 17.304688 66.039063 C 15.601563 65.832031 13.929688 65.476563 12.242188 65.175781 C 11.0625 64.929688 9.863281 64.78125 8.792969 64.273438 Z M 12.65625 73.5 C 11.457031 72.9375 10.5 72.113281 10.105469 70.820313 C 9.730469 69.582031 10.070313 68.136719 10.292969 66.882813 C 11.867188 67.21875 13.480469 67.519531 15.074219 67.78125 C 19.367188 68.492188 23.757813 68.570313 28.085938 68.71875 C 30.226563 68.792969 32.304688 68.960938 34.445313 68.679688 C 36.1875 68.457031 37.914063 68.117188 39.675781 68.117188 C 39.882813 70.179688 40.292969 72.226563 41.082031 74.136719 C 41.007813 74.15625 40.949219 74.15625 40.875 74.195313 C 39.582031 74.644531 38.175781 74.679688 36.824219 74.792969 C 35.15625 74.925781 33.488281 75.132813 31.820313 75.1875 C 30.167969 75.242188 28.539063 75.074219 26.886719 75.074219 C 25.050781 75.074219 23.210938 75.132813 21.375 75.113281 C 18.394531 75.113281 15.375 74.792969 12.65625 73.5 Z M 38.363281 84.730469 C 34.78125 85.238281 31.125 85.351563 27.523438 85.144531 C 24.542969 84.957031 21.207031 84.789063 18.617188 83.175781 C 17.605469 82.554688 17.175781 81.65625 16.855469 80.570313 C 16.707031 80.042969 16.574219 79.519531 16.5 78.957031 C 16.460938 78.695313 16.445313 78.449219 16.460938 78.1875 C 16.460938 78.132813 16.460938 78.09375 16.480469 78.074219 C 16.875 77.773438 16.96875 77.269531 16.835938 76.855469 C 17.679688 76.988281 18.523438 77.0625 19.332031 77.101563 C 21.300781 77.210938 23.25 77.175781 25.21875 77.136719 C 27.242188 77.101563 29.269531 77.25 31.292969 77.25 C 33.113281 77.230469 34.894531 77.023438 36.710938 76.855469 C 38.34375 76.726563 40.011719 76.667969 41.570313 76.125 C 41.71875 76.070313 41.851563 75.992188 41.945313 75.898438 C 42.019531 76.03125 42.09375 76.144531 42.167969 76.273438 C 43.632813 78.710938 45.75 80.679688 48.132813 82.257813 C 44.90625 83.34375 41.71875 84.261719 38.363281 84.730469 Z M 68.625 84.710938 C 64.21875 85.632813 59.585938 85.164063 55.367188 83.644531 C 51.132813 82.125 46.949219 79.59375 44.304688 75.882813 C 41.492188 71.925781 41.398438 66.824219 41.570313 62.082031 C 41.585938 62.023438 41.625 61.949219 41.625 61.875 C 41.886719 60.730469 41.960938 59.550781 42.207031 58.386719 C 42.449219 57.261719 42.789063 56.175781 43.21875 55.125 C 44.023438 53.117188 45.148438 51.242188 46.519531 49.574219 C 49.292969 46.179688 53.117188 43.800781 57.335938 42.65625 C 66.789063 40.085938 76.875 45 82.445313 52.726563 C 87.992188 60.429688 86.082031 70.914063 80.15625 77.792969 C 77.175781 81.28125 73.164063 83.757813 68.625 84.710938 Z M 87.898438 69.84375 C 87 72.507813 85.5 74.757813 83.625 76.6875 C 87.335938 71.175781 88.875 64.257813 87.113281 57.730469 C 85.894531 53.195313 82.875 49.386719 79.332031 46.386719 C 75.675781 43.292969 71.210938 41.0625 66.488281 40.199219 C 60.488281 39.09375 54.113281 40.742188 49.199219 44.289063 C 49.632813 43.820313 50.0625 43.367188 50.53125 42.917969 C 54.132813 39.488281 59.117188 37.351563 64.03125 36.75 C 68.867188 36.167969 73.949219 37.273438 77.960938 40.070313 C 81.261719 42.355469 83.757813 45.636719 85.59375 49.179688 C 88.800781 55.292969 90.1875 63.1875 87.898438 69.84375 Z "/>
<path style=" stroke:none;fill-rule:nonzero;fill:#000000;fill-opacity:1;" d="M 82.125 56.832031 C 81.882813 56.007813 81.429688 55.292969 80.945313 54.601563 C 80.570313 54.074219 80.042969 53.53125 79.875 52.894531 C 79.539063 51.601563 77.585938 52.292969 77.925781 53.570313 C 78.320313 55.050781 79.742188 56.023438 80.175781 57.507813 C 80.53125 58.800781 82.480469 58.105469 82.125 56.832031 Z "/>
<path style=" stroke:none;fill-rule:nonzero;fill:#000000;fill-opacity:1;" d="M 83.289063 63.46875 C 83.269531 62.136719 81.207031 62.304688 81.226563 63.617188 C 81.242188 64.332031 81.617188 65.644531 81.113281 66.226563 C 80.230469 67.21875 81.789063 68.585938 82.667969 67.59375 C 83.699219 66.449219 83.324219 64.875 83.289063 63.46875 Z "/>
<path style=" stroke:none;fill-rule:nonzero;fill:#000000;fill-opacity:1;" d="M 44.738281 56.679688 C 43.648438 58.179688 43.460938 60.46875 43.96875 62.210938 C 44.34375 63.488281 46.292969 62.8125 45.917969 61.539063 C 45.636719 60.5625 45.675781 58.914063 46.273438 58.050781 C 47.0625 56.980469 45.523438 55.613281 44.738281 56.679688 Z "/>
<path style=" stroke:none;fill-rule:nonzero;fill:#000000;fill-opacity:1;" d="M 47.679688 71.980469 C 46.949219 70.6875 46.21875 69.300781 46.164063 67.800781 C 46.105469 66.46875 44.0625 66.636719 44.101563 67.949219 C 44.175781 69.804688 45.054688 71.550781 45.957031 73.144531 C 46.632813 74.289063 48.335938 73.125 47.679688 71.980469 Z "/>
<path style=" stroke:none;fill-rule:nonzero;fill:#000000;fill-opacity:1;" d="M 55.386719 79.835938 C 54.226563 78.730469 52.761719 78.113281 51.449219 77.210938 C 50.363281 76.460938 48.992188 78 50.082031 78.769531 C 51.375 79.667969 52.875 80.289063 54.019531 81.394531 C 54.992188 82.3125 56.34375 80.757813 55.386719 79.835938 Z "/>
<path style=" stroke:none;fill-rule:nonzero;fill:#000000;fill-opacity:1;" d="M 65.679688 80.90625 L 60.992188 80.90625 C 59.664063 80.90625 59.832031 82.96875 61.144531 82.96875 L 65.832031 82.96875 C 67.179688 82.949219 67.011719 80.90625 65.679688 80.90625 Z "/>
<path style=" stroke:none;fill-rule:nonzero;fill:#000000;fill-opacity:1;" d="M 77.851563 72.5625 C 77.398438 72.335938 76.648438 72.488281 76.460938 73.03125 C 76.070313 74.136719 75.355469 75.730469 74.230469 76.273438 C 73.050781 76.835938 73.707031 78.789063 74.90625 78.226563 C 76.574219 77.4375 77.699219 75.675781 78.300781 73.96875 C 78.507813 73.425781 78.394531 72.84375 77.851563 72.5625 Z "/>
<path style=" stroke:none;fill-rule:nonzero;fill:#000000;fill-opacity:1;" d="M 53.605469 46.460938 C 51.507813 47.023438 49.949219 48.84375 48.488281 50.324219 C 47.550781 51.261719 49.105469 52.632813 50.042969 51.695313 C 51.28125 50.457031 52.539063 48.882813 54.300781 48.429688 C 55.574219 48.054688 54.898438 46.125 53.605469 46.460938 Z "/>
<path style=" stroke:none;fill-rule:nonzero;fill:#000000;fill-opacity:1;" d="M 67.574219 45.148438 C 66.242188 44.136719 64.707031 44.269531 63.226563 43.6875 C 61.988281 43.199219 61.070313 45.054688 62.304688 45.542969 C 63.523438 46.011719 65.15625 45.898438 66.207031 46.707031 C 67.273438 47.511719 68.625 45.957031 67.574219 45.148438 Z "/>
<path style=" stroke:none;fill-rule:nonzero;fill:#000000;fill-opacity:1;" d="M 76.3125 50.082031 C 75.789063 48.65625 74.53125 47.738281 73.386719 46.835938 C 72.355469 46.011719 70.988281 47.550781 72.019531 48.394531 C 72.84375 49.050781 73.96875 49.742188 74.34375 50.773438 C 74.8125 52.011719 76.761719 51.335938 76.3125 50.082031 Z "/>
</g>
</svg>
