<?xml version="1.0" encoding="UTF-8"?>
<svg xmlns="http://www.w3.org/2000/svg" xmlns:xlink="http://www.w3.org/1999/xlink" width="100pt" height="100pt" viewBox="0 0 100 100" version="1.1">
<g id="surface1">
<path style=" stroke:none;fill-rule:nonzero;fill:#F1BC19;fill-opacity:1;" d="M 78 13 C 78 13.550781 77.550781 14 77 14 C 76.449219 14 76 13.550781 76 13 C 76 12.449219 76.449219 12 77 12 C 77.550781 12 78 12.449219 78 13 Z "/>
<path style=" stroke:none;fill-rule:nonzero;fill:#E4E4F9;fill-opacity:1;" d="M 87 50 C 87 70.433594 70.433594 87 50 87 C 29.566406 87 13 70.433594 13 50 C 13 29.566406 29.566406 13 50 13 C 70.433594 13 87 29.566406 87 50 Z "/>
<path style=" stroke:none;fill-rule:nonzero;fill:#F1BC19;fill-opacity:1;" d="M 87 15 C 87 17.210938 85.210938 19 83 19 C 80.789063 19 79 17.210938 79 15 C 79 12.789063 80.789063 11 83 11 C 85.210938 11 87 12.789063 87 15 Z "/>
<path style=" stroke:none;fill-rule:nonzero;fill:#8889B9;fill-opacity:1;" d="M 89 24 C 89 25.105469 88.105469 26 87 26 C 85.894531 26 85 25.105469 85 24 C 85 22.894531 85.894531 22 87 22 C 88.105469 22 89 22.894531 89 24 Z "/>
<path style=" stroke:none;fill-rule:nonzero;fill:#FBCD59;fill-opacity:1;" d="M 83 76 C 83 77.105469 82.105469 78 81 78 C 79.894531 78 79 77.105469 79 76 C 79 74.894531 79.894531 74 81 74 C 82.105469 74 83 74.894531 83 76 Z "/>
<path style=" stroke:none;fill-rule:nonzero;fill:#FBCD59;fill-opacity:1;" d="M 19 63 C 19 65.210938 17.210938 67 15 67 C 12.789063 67 11 65.210938 11 63 C 11 60.789063 12.789063 59 15 59 C 17.210938 59 19 60.789063 19 63 Z "/>
<path style=" stroke:none;fill-rule:nonzero;fill:#8889B9;fill-opacity:1;" d="M 27 87 C 27 88.105469 26.105469 89 25 89 C 23.894531 89 23 88.105469 23 87 C 23 85.894531 23.894531 85 25 85 C 26.105469 85 27 85.894531 27 87 Z "/>
<path style=" stroke:none;fill-rule:nonzero;fill:#FFFFFF;fill-opacity:1;" d="M 21 51.5 C 21 52.878906 19.878906 54 18.5 54 C 17.121094 54 16 52.878906 16 51.5 C 16 50.121094 17.121094 49 18.5 49 C 19.878906 49 21 50.121094 21 51.5 Z "/>
<path style=" stroke:none;fill-rule:nonzero;fill:#FFFFFF;fill-opacity:1;" d="M 81 33.5 C 81 34.328125 80.328125 35 79.5 35 C 78.671875 35 78 34.328125 78 33.5 C 78 32.671875 78.671875 32 79.5 32 C 80.328125 32 81 32.671875 81 33.5 Z "/>
<path style=" stroke:none;fill-rule:evenodd;fill:#78CDD4;fill-opacity:1;" d="M 34.003906 76.160156 C 32.921875 76.160156 31.90625 75.738281 31.144531 74.976563 C 29.566406 73.398438 29.566406 70.832031 31.144531 69.257813 L 59.488281 40.910156 L 59.351563 40.5 C 58.226563 37.15625 58.839844 33.375 60.953125 30.632813 C 63 27.972656 66.078125 26.449219 69.398438 26.449219 C 70.148438 26.449219 70.898438 26.527344 71.628906 26.683594 C 71.992188 26.761719 72.117188 27.058594 72.15625 27.179688 C 72.238281 27.457031 72.167969 27.742188 71.964844 27.945313 L 67.914063 31.996094 C 66.757813 33.152344 66.761719 35.035156 67.914063 36.191406 L 69.929688 38.203125 C 70.492188 38.765625 71.234375 39.074219 72.027344 39.074219 C 72.820313 39.074219 73.5625 38.765625 74.125 38.203125 L 78.414063 33.914063 C 78.601563 33.730469 78.808594 33.691406 78.953125 33.691406 C 79.210938 33.691406 79.550781 33.824219 79.65625 34.203125 C 80.691406 37.902344 79.648438 41.882813 76.9375 44.59375 C 74.933594 46.601563 72.265625 47.703125 69.429688 47.703125 C 68.070313 47.703125 66.742188 47.449219 65.488281 46.949219 L 65.058594 46.78125 L 36.863281 74.976563 C 36.101563 75.738281 35.085938 76.160156 34.003906 76.160156 Z "/>
<path style=" stroke:none;fill-rule:nonzero;fill:#472B29;fill-opacity:1;" d="M 69.398438 27.148438 C 70.097656 27.148438 70.800781 27.222656 71.476563 27.363281 C 71.476563 27.363281 71.507813 27.414063 71.472656 27.449219 L 67.421875 31.5 C 66.726563 32.191406 66.347656 33.113281 66.347656 34.09375 C 66.347656 35.070313 66.726563 35.992188 67.421875 36.683594 L 69.433594 38.699219 C 70.128906 39.390625 71.046875 39.773438 72.027344 39.773438 C 73.007813 39.773438 73.929688 39.390625 74.621094 38.699219 L 78.910156 34.410156 L 77.917969 33.421875 L 78.980469 34.390625 C 79.949219 37.847656 78.976563 41.566406 76.441406 44.097656 C 74.570313 45.972656 72.078125 47.003906 69.429688 47.003906 C 68.160156 47.003906 66.921875 46.765625 65.746094 46.300781 L 64.890625 45.960938 L 64.238281 46.609375 L 36.367188 74.480469 C 35.738281 75.113281 34.898438 75.460938 34.003906 75.460938 C 33.109375 75.460938 32.269531 75.113281 31.640625 74.480469 C 30.335938 73.175781 30.335938 71.054688 31.640625 69.75 L 60.292969 41.097656 L 60.015625 40.273438 C 58.96875 37.148438 59.539063 33.617188 61.511719 31.058594 C 63.421875 28.574219 66.296875 27.148438 69.398438 27.148438 M 69.398438 25.75 C 66.042969 25.75 62.6875 27.230469 60.398438 30.203125 C 58.074219 33.226563 57.511719 37.222656 58.6875 40.722656 L 30.648438 68.761719 C 28.796875 70.613281 28.796875 73.617188 30.648438 75.472656 C 31.574219 76.398438 32.789063 76.863281 34.003906 76.863281 C 35.21875 76.863281 36.433594 76.398438 37.359375 75.472656 L 65.230469 47.601563 C 66.574219 48.136719 68.003906 48.402344 69.429688 48.402344 C 72.324219 48.402344 75.222656 47.300781 77.433594 45.089844 C 80.433594 42.089844 81.398438 37.828125 80.332031 34.015625 C 80.148438 33.359375 79.558594 32.992188 78.953125 32.992188 C 78.585938 32.992188 78.210938 33.128906 77.921875 33.421875 L 73.632813 37.710938 C 73.1875 38.152344 72.609375 38.375 72.027344 38.375 C 71.449219 38.375 70.867188 38.152344 70.425781 37.710938 L 68.410156 35.695313 C 67.527344 34.8125 67.527344 33.375 68.410156 32.492188 L 72.460938 28.441406 C 73.265625 27.636719 72.882813 26.234375 71.773438 26 C 70.992188 25.832031 70.195313 25.75 69.398438 25.75 Z "/>
<path style=" stroke:none;fill-rule:nonzero;fill:#FED5B3;fill-opacity:1;" d="M 45.28125 70.878906 C 44.117188 70.878906 42.96875 70.398438 42.132813 69.5625 L 20.449219 47.878906 C 19.835938 47.265625 19.835938 46.269531 20.449219 45.65625 L 37.363281 28.738281 C 37.660156 28.441406 38.054688 28.277344 38.476563 28.277344 C 38.894531 28.277344 39.289063 28.441406 39.589844 28.738281 L 44.539063 33.691406 L 44.789063 33.71875 C 47.847656 34.035156 53.636719 34.910156 58.558594 37.261719 C 58.582031 38.636719 58.859375 40.007813 59.371094 41.28125 L 57.242188 43.414063 L 66.519531 52.691406 C 68.101563 54.269531 68.246094 56.832031 66.847656 58.398438 C 66.074219 59.269531 65.007813 59.746094 63.847656 59.746094 C 63.25 59.746094 62.644531 59.609375 62.105469 59.355469 L 61.222656 58.941406 L 61.109375 59.910156 C 61.003906 60.839844 60.609375 61.664063 59.972656 62.300781 C 59.222656 63.054688 58.214844 63.46875 57.140625 63.46875 C 56.777344 63.46875 56.417969 63.421875 56.066406 63.328125 L 55.203125 63.097656 L 55.1875 63.992188 C 55.164063 65.050781 54.75 66.039063 54.007813 66.777344 C 53.253906 67.53125 52.25 67.945313 51.175781 67.945313 C 50.738281 67.945313 50.300781 67.875 49.882813 67.738281 L 49.222656 67.519531 L 49 68.179688 C 48.742188 68.953125 48.304688 69.589844 47.703125 70.058594 C 47.019531 70.597656 46.183594 70.878906 45.28125 70.878906 Z "/>
<path style=" stroke:none;fill-rule:nonzero;fill:#472B29;fill-opacity:1;" d="M 38.476563 28.980469 C 38.710938 28.980469 38.929688 29.070313 39.09375 29.234375 L 44.222656 34.363281 L 44.71875 34.414063 C 47.652344 34.71875 53.136719 35.546875 57.871094 37.714844 C 57.9375 38.871094 58.167969 40.019531 58.558594 41.109375 L 57.242188 42.421875 L 56.253906 43.414063 L 57.242188 44.402344 L 66.023438 53.1875 C 67.347656 54.507813 67.480469 56.640625 66.324219 57.9375 C 65.6875 58.652344 64.808594 59.046875 63.847656 59.046875 C 63.351563 59.046875 62.851563 58.9375 62.402344 58.722656 L 60.640625 57.890625 L 60.414063 59.828125 C 60.355469 60.367188 60.140625 61.144531 59.480469 61.808594 C 58.859375 62.429688 58.027344 62.769531 57.140625 62.769531 C 56.839844 62.769531 56.539063 62.730469 56.25 62.652344 L 54.519531 62.1875 L 54.488281 63.980469 C 54.472656 64.855469 54.125 65.671875 53.515625 66.28125 C 52.894531 66.902344 52.0625 67.246094 51.179688 67.246094 C 50.8125 67.246094 50.453125 67.1875 50.105469 67.074219 L 48.78125 66.636719 L 48.339844 67.960938 C 48.125 68.601563 47.765625 69.125 47.273438 69.511719 C 46.714844 69.949219 46.027344 70.179688 45.285156 70.179688 C 44.300781 70.179688 43.335938 69.777344 42.628906 69.070313 L 20.945313 47.386719 C 20.601563 47.046875 20.601563 46.492188 20.945313 46.148438 L 37.859375 29.234375 C 38.023438 29.070313 38.242188 28.980469 38.476563 28.980469 M 38.476563 27.578125 C 37.894531 27.578125 37.3125 27.800781 36.867188 28.246094 L 19.953125 45.160156 C 19.066406 46.046875 19.066406 47.488281 19.953125 48.375 L 32.886719 61.304688 L 36.238281 64.660156 L 41.636719 70.058594 C 42.625 71.046875 43.960938 71.578125 45.28125 71.578125 C 46.292969 71.578125 47.296875 71.265625 48.136719 70.609375 C 48.902344 70.011719 49.390625 69.234375 49.667969 68.402344 C 50.15625 68.5625 50.667969 68.644531 51.179688 68.644531 C 52.382813 68.644531 53.585938 68.191406 54.507813 67.269531 C 55.410156 66.367188 55.863281 65.1875 55.886719 64.003906 C 56.296875 64.113281 56.71875 64.171875 57.140625 64.171875 C 58.347656 64.171875 59.550781 63.71875 60.46875 62.796875 C 61.257813 62.011719 61.6875 61.015625 61.808594 59.988281 C 62.453125 60.292969 63.152344 60.445313 63.851563 60.445313 C 65.140625 60.445313 66.429688 59.925781 67.371094 58.867188 C 69.070313 56.960938 68.820313 54 67.015625 52.195313 L 58.234375 43.410156 L 60.203125 41.441406 C 59.539063 39.980469 59.222656 38.402344 59.257813 36.824219 C 54.246094 34.324219 48.304688 33.378906 44.863281 33.019531 L 40.085938 28.242188 C 39.640625 27.800781 39.058594 27.578125 38.476563 27.578125 Z "/>
<path style=" stroke:none;fill-rule:evenodd;fill:#FFFFFF;fill-opacity:1;" d="M 21.078125 47.449219 L 25.667969 52.039063 L 43.75 33.957031 L 39.160156 29.367188 C 38.785156 28.996094 38.179688 28.996094 37.808594 29.367188 L 21.078125 46.097656 C 20.707031 46.46875 20.707031 47.074219 21.078125 47.449219 Z "/>
<path style=" stroke:none;fill-rule:nonzero;fill:#472B29;fill-opacity:1;" d="M 55.625 52.484375 C 55.496094 52.484375 55.367188 52.4375 55.269531 52.339844 L 45.578125 42.648438 C 45.382813 42.453125 45.382813 42.136719 45.578125 41.941406 C 45.773438 41.746094 46.089844 41.746094 46.285156 41.941406 L 55.976563 51.632813 C 56.171875 51.828125 56.171875 52.144531 55.976563 52.339844 C 55.882813 52.4375 55.753906 52.484375 55.625 52.484375 Z "/>
<path style=" stroke:none;fill-rule:nonzero;fill:#472B29;fill-opacity:1;" d="M 50.40625 57.703125 C 50.277344 57.703125 50.148438 57.65625 50.050781 57.558594 L 44.085938 51.59375 C 43.890625 51.398438 43.890625 51.082031 44.085938 50.886719 C 44.28125 50.691406 44.597656 50.691406 44.792969 50.886719 L 50.757813 56.851563 C 50.953125 57.046875 50.953125 57.363281 50.757813 57.558594 C 50.660156 57.65625 50.53125 57.703125 50.40625 57.703125 Z "/>
<path style=" stroke:none;fill-rule:nonzero;fill:#472B29;fill-opacity:1;" d="M 31.019531 47.269531 C 30.894531 47.269531 30.765625 47.21875 30.667969 47.121094 C 30.472656 46.925781 30.472656 46.609375 30.667969 46.414063 L 44.085938 32.996094 C 44.28125 32.800781 44.597656 32.800781 44.792969 32.996094 C 44.988281 33.191406 44.988281 33.507813 44.792969 33.703125 L 31.375 47.121094 C 31.277344 47.21875 31.148438 47.269531 31.019531 47.269531 Z "/>
<path style=" stroke:none;fill-rule:nonzero;fill:#472B29;fill-opacity:1;" d="M 28.039063 50.25 C 27.910156 50.25 27.78125 50.199219 27.683594 50.105469 C 27.488281 49.910156 27.488281 49.59375 27.683594 49.398438 L 29.175781 47.90625 C 29.371094 47.710938 29.6875 47.710938 29.882813 47.90625 C 30.078125 48.101563 30.078125 48.417969 29.882813 48.613281 L 28.390625 50.105469 C 28.296875 50.199219 28.167969 50.25 28.039063 50.25 Z "/>
<path style=" stroke:none;fill-rule:nonzero;fill:#472B29;fill-opacity:1;" d="M 25.058594 53.230469 C 24.929688 53.230469 24.800781 53.183594 24.703125 53.085938 C 24.507813 52.890625 24.507813 52.574219 24.703125 52.378906 L 26.195313 50.886719 C 26.390625 50.691406 26.707031 50.691406 26.902344 50.886719 C 27.097656 51.082031 27.097656 51.398438 26.902344 51.59375 L 25.410156 53.085938 C 25.3125 53.183594 25.183594 53.230469 25.058594 53.230469 Z "/>
<path style=" stroke:none;fill-rule:nonzero;fill:#472B29;fill-opacity:1;" d="M 45.1875 62.925781 C 45.058594 62.925781 44.929688 62.875 44.832031 62.777344 L 38.867188 56.8125 C 38.675781 56.617188 38.675781 56.300781 38.867188 56.105469 C 39.0625 55.910156 39.382813 55.910156 39.574219 56.105469 L 45.539063 62.070313 C 45.734375 62.265625 45.734375 62.585938 45.539063 62.777344 C 45.441406 62.875 45.3125 62.925781 45.1875 62.925781 Z "/>
<path style=" stroke:none;fill-rule:nonzero;fill:#472B29;fill-opacity:1;" d="M 42.203125 49.503906 C 42.074219 49.503906 41.949219 49.453125 41.851563 49.359375 L 40.359375 47.867188 C 40.164063 47.671875 40.164063 47.355469 40.359375 47.160156 C 40.554688 46.964844 40.871094 46.964844 41.066406 47.160156 L 42.558594 48.652344 C 42.753906 48.847656 42.753906 49.164063 42.558594 49.359375 C 42.460938 49.453125 42.332031 49.503906 42.203125 49.503906 Z "/>
<path style=" stroke:none;fill-rule:nonzero;fill:#472B29;fill-opacity:1;" d="M 25.800781 48.847656 C 25.269531 48.847656 24.738281 48.644531 24.328125 48.238281 C 23.519531 47.429688 23.519531 46.109375 24.328125 45.296875 C 25.144531 44.484375 26.460938 44.484375 27.273438 45.296875 C 28.085938 46.109375 28.085938 47.429688 27.273438 48.238281 C 26.867188 48.644531 26.335938 48.847656 25.800781 48.847656 Z M 25.800781 45.6875 C 25.527344 45.6875 25.246094 45.792969 25.035156 46.003906 C 24.613281 46.425781 24.613281 47.109375 25.035156 47.53125 C 25.460938 47.953125 26.144531 47.953125 26.566406 47.53125 C 26.988281 47.109375 26.988281 46.425781 26.566406 46.003906 C 26.355469 45.792969 26.078125 45.6875 25.800781 45.6875 Z "/>
<path style=" stroke:none;fill-rule:evenodd;fill:#472B29;fill-opacity:1;" d="M 35.058594 72.117188 C 35.058594 72.699219 34.585938 73.171875 34.003906 73.171875 C 33.421875 73.171875 32.949219 72.699219 32.949219 72.117188 C 32.949219 71.535156 33.421875 71.0625 34.003906 71.0625 C 34.585938 71.0625 35.058594 71.535156 35.058594 72.117188 Z "/>
<path style=" stroke:none;fill-rule:nonzero;fill:#472B29;fill-opacity:1;" d="M 69.050781 44.953125 C 67.640625 44.953125 66.242188 44.578125 65.019531 43.851563 C 64.457031 43.519531 63.9375 43.113281 63.472656 42.648438 C 63.277344 42.453125 63.277344 42.136719 63.472656 41.941406 C 63.667969 41.746094 63.984375 41.746094 64.179688 41.941406 C 64.585938 42.347656 65.039063 42.699219 65.53125 42.992188 C 67.15625 43.960938 69.136719 44.210938 70.957031 43.6875 C 71.226563 43.609375 71.5 43.761719 71.574219 44.027344 C 71.652344 44.292969 71.5 44.570313 71.234375 44.648438 C 70.519531 44.855469 69.78125 44.953125 69.050781 44.953125 Z "/>
<path style=" stroke:none;fill-rule:nonzero;fill:#472B29;fill-opacity:1;" d="M 73.363281 43.289063 C 73.191406 43.289063 73.027344 43.203125 72.933594 43.050781 C 72.789063 42.8125 72.867188 42.507813 73.101563 42.363281 C 73.847656 41.910156 74.492188 41.335938 75.011719 40.644531 C 75.179688 40.425781 75.492188 40.382813 75.714844 40.550781 C 75.933594 40.71875 75.976563 41.03125 75.808594 41.25 C 75.210938 42.039063 74.472656 42.699219 73.621094 43.21875 C 73.539063 43.265625 73.449219 43.289063 73.363281 43.289063 Z "/>
<path style=" stroke:none;fill-rule:nonzero;fill:#472B29;fill-opacity:1;" d="M 57.203125 44.128906 C 57.074219 44.128906 56.949219 44.078125 56.851563 43.984375 L 53.703125 40.835938 C 53.507813 40.640625 53.507813 40.324219 53.703125 40.128906 C 53.898438 39.933594 54.214844 39.933594 54.410156 40.128906 L 57.558594 43.277344 C 57.753906 43.472656 57.753906 43.789063 57.558594 43.984375 C 57.460938 44.078125 57.332031 44.128906 57.203125 44.128906 Z "/>
</g>
</svg>
