<?xml version="1.0" encoding="UTF-8"?>
<svg xmlns="http://www.w3.org/2000/svg" xmlns:xlink="http://www.w3.org/1999/xlink" width="100pt" height="100pt" viewBox="0 0 100 100" version="1.1">
<g id="surface1">
<path style=" stroke:none;fill-rule:nonzero;fill:#EE3E54;fill-opacity:1;" d="M 15 29 C 15 30.105469 14.105469 31 13 31 C 11.894531 31 11 30.105469 11 29 C 11 27.894531 11.894531 27 13 27 C 14.105469 27 15 27.894531 15 29 Z "/>
<path style=" stroke:none;fill-rule:nonzero;fill:#F1BC19;fill-opacity:1;" d="M 78 13 C 78 13.550781 77.550781 14 77 14 C 76.449219 14 76 13.550781 76 13 C 76 12.449219 76.449219 12 77 12 C 77.550781 12 78 12.449219 78 13 Z "/>
<path style=" stroke:none;fill-rule:nonzero;fill:#FCE0A2;fill-opacity:1;" d="M 87 50 C 87 70.433594 70.433594 87 50 87 C 29.566406 87 13 70.433594 13 50 C 13 29.566406 29.566406 13 50 13 C 70.433594 13 87 29.566406 87 50 Z "/>
<path style=" stroke:none;fill-rule:nonzero;fill:#F1BC19;fill-opacity:1;" d="M 87 15 C 87 17.210938 85.210938 19 83 19 C 80.789063 19 79 17.210938 79 15 C 79 12.789063 80.789063 11 83 11 C 85.210938 11 87 12.789063 87 15 Z "/>
<path style=" stroke:none;fill-rule:nonzero;fill:#EE3E54;fill-opacity:1;" d="M 89 24 C 89 25.105469 88.105469 26 87 26 C 85.894531 26 85 25.105469 85 24 C 85 22.894531 85.894531 22 87 22 C 88.105469 22 89 22.894531 89 24 Z "/>
<path style=" stroke:none;fill-rule:nonzero;fill:#FBCD59;fill-opacity:1;" d="M 83 76 C 83 77.105469 82.105469 78 81 78 C 79.894531 78 79 77.105469 79 76 C 79 74.894531 79.894531 74 81 74 C 82.105469 74 83 74.894531 83 76 Z "/>
<path style=" stroke:none;fill-rule:nonzero;fill:#FBCD59;fill-opacity:1;" d="M 19 63 C 19 65.210938 17.210938 67 15 67 C 12.789063 67 11 65.210938 11 63 C 11 60.789063 12.789063 59 15 59 C 17.210938 59 19 60.789063 19 63 Z "/>
<path style=" stroke:none;fill-rule:nonzero;fill:#EE3E54;fill-opacity:1;" d="M 27 87 C 27 88.105469 26.105469 89 25 89 C 23.894531 89 23 88.105469 23 87 C 23 85.894531 23.894531 85 25 85 C 26.105469 85 27 85.894531 27 87 Z "/>
<path style=" stroke:none;fill-rule:nonzero;fill:#FFFFFF;fill-opacity:1;" d="M 21 53.5 C 21 54.878906 19.878906 56 18.5 56 C 17.121094 56 16 54.878906 16 53.5 C 16 52.121094 17.121094 51 18.5 51 C 19.878906 51 21 52.121094 21 53.5 Z "/>
<path style=" stroke:none;fill-rule:nonzero;fill:#F1BC19;fill-opacity:1;" d="M 22 67 C 22 67.550781 21.550781 68 21 68 C 20.449219 68 20 67.550781 20 67 C 20 66.449219 20.449219 66 21 66 C 21.550781 66 22 66.449219 22 67 Z "/>
<path style=" stroke:none;fill-rule:nonzero;fill:#FFFFFF;fill-opacity:1;" d="M 81 34 C 81 34.550781 80.550781 35 80 35 C 79.449219 35 79 34.550781 79 34 C 79 33.449219 79.449219 33 80 33 C 80.550781 33 81 33.449219 81 34 Z "/>
<path style=" stroke:none;fill-rule:nonzero;fill:#00A698;fill-opacity:1;" d="M 50.332031 74.597656 C 37.6875 74.597656 27.699219 74.597656 27.699219 62.8125 C 27.699219 53.210938 35.253906 41.453125 44.199219 37.136719 L 44.882813 36.808594 L 39.035156 26.769531 C 38.550781 25.117188 38.753906 23.527344 39.597656 22.390625 C 40.242188 21.515625 41.179688 21.035156 42.238281 21.035156 C 43.679688 21.035156 45.207031 21.945313 46.535156 23.597656 C 47.765625 25.128906 49.09375 25.84375 50.707031 25.84375 C 51.691406 25.84375 52.828125 25.574219 54.273438 25.003906 C 55.585938 24.480469 56.773438 24.21875 57.8125 24.21875 C 59.144531 24.21875 60.171875 24.671875 60.710938 25.488281 C 61.222656 26.265625 61.261719 27.296875 60.820313 28.320313 L 55.773438 36.804688 L 56.464844 37.136719 C 65.410156 41.449219 72.964844 53.210938 72.964844 62.8125 C 72.964844 74.597656 62.980469 74.597656 50.332031 74.597656 Z "/>
<path style=" stroke:none;fill-rule:nonzero;fill:#472B29;fill-opacity:1;" d="M 42.234375 21.734375 C 43.464844 21.734375 44.796875 22.550781 45.988281 24.035156 C 47.363281 25.746094 48.863281 26.542969 50.707031 26.542969 C 51.785156 26.542969 53 26.257813 54.53125 25.652344 C 55.761719 25.164063 56.867188 24.917969 57.8125 24.917969 C 58.902344 24.917969 59.722656 25.257813 60.128906 25.871094 C 60.496094 26.429688 60.523438 27.1875 60.210938 27.96875 L 55.5625 35.789063 L 54.785156 37.105469 L 56.160156 37.765625 C 64.890625 41.976563 72.265625 53.445313 72.265625 62.8125 C 72.265625 73.382813 64.339844 73.898438 50.332031 73.898438 C 36.324219 73.898438 28.398438 73.382813 28.398438 62.8125 C 28.398438 53.449219 35.773438 41.980469 44.503906 37.769531 L 45.867188 37.109375 L 45.105469 35.804688 L 39.683594 26.492188 C 39.292969 25.082031 39.464844 23.746094 40.160156 22.804688 C 40.671875 22.113281 41.40625 21.734375 42.234375 21.734375 M 42.234375 20.335938 C 39.347656 20.335938 37.261719 23.359375 38.386719 27.046875 L 43.894531 36.507813 C 34.695313 40.945313 27 52.863281 27 62.8125 C 27 75.296875 37.5 75.296875 50.332031 75.296875 C 63.164063 75.296875 73.664063 75.296875 73.664063 62.8125 C 73.664063 52.863281 65.96875 40.941406 56.765625 36.507813 L 61.464844 28.597656 C 62.511719 26.160156 61.257813 23.519531 57.8125 23.519531 C 56.753906 23.519531 55.484375 23.769531 54.015625 24.351563 C 52.738281 24.859375 51.660156 25.144531 50.707031 25.144531 C 49.324219 25.144531 48.195313 24.546875 47.078125 23.15625 C 45.476563 21.160156 43.746094 20.335938 42.234375 20.335938 Z "/>
<path style=" stroke:none;fill-rule:nonzero;fill:#FFFFFF;fill-opacity:1;" d="M 52.449219 59.886719 C 52.449219 59.207031 52.3125 58.664063 51.90625 58.394531 C 51.5 57.988281 50.960938 57.71875 50.011719 57.3125 C 49.199219 57.039063 48.386719 56.632813 47.710938 56.363281 C 47.03125 56.09375 46.488281 55.6875 46.085938 55.277344 C 45.679688 54.871094 45.269531 54.332031 45 53.789063 C 44.730469 53.246094 44.59375 52.570313 44.59375 51.757813 C 44.59375 50.402344 45 49.320313 45.8125 48.507813 C 46.625 47.691406 47.84375 47.152344 49.199219 47.015625 L 49.199219 44.441406 L 51.09375 44.441406 L 51.09375 47.015625 C 52.449219 47.152344 53.53125 47.828125 54.347656 48.777344 C 55.160156 49.726563 55.566406 50.945313 55.566406 52.570313 L 52.179688 52.570313 C 52.179688 51.621094 52.042969 50.945313 51.636719 50.402344 C 51.230469 49.859375 50.6875 49.726563 50.011719 49.726563 C 49.335938 49.726563 48.792969 49.859375 48.523438 50.265625 C 48.117188 50.671875 47.980469 51.078125 47.980469 51.757813 C 47.980469 52.300781 48.113281 52.839844 48.523438 53.246094 C 48.929688 53.652344 49.46875 53.925781 50.417969 54.332031 C 51.367188 54.738281 52.179688 55.007813 52.71875 55.414063 C 53.398438 55.6875 53.804688 56.09375 54.210938 56.5 C 54.617188 56.90625 54.886719 57.445313 55.15625 57.988281 C 55.429688 58.53125 55.429688 59.207031 55.429688 59.886719 C 55.429688 61.238281 55.023438 62.324219 54.210938 63.136719 C 53.398438 63.949219 52.179688 64.488281 50.6875 64.625 L 50.6875 67.0625 L 48.792969 67.0625 L 48.792969 64.761719 C 47.167969 64.625 45.949219 63.949219 45 63 C 44.050781 62.050781 43.644531 60.699219 43.644531 59.070313 L 47.03125 59.070313 C 47.03125 60.019531 47.304688 60.695313 47.710938 61.238281 C 48.113281 61.78125 48.792969 62.050781 49.605469 62.050781 C 50.28125 62.050781 50.824219 61.917969 51.230469 61.511719 C 52.179688 61.105469 52.449219 60.5625 52.449219 59.886719 Z "/>
<path style=" stroke:none;fill-rule:nonzero;fill:#472B29;fill-opacity:1;" d="M 38.886719 55.8125 C 38.859375 55.8125 38.828125 55.808594 38.800781 55.804688 C 38.414063 55.757813 38.144531 55.40625 38.191406 55.023438 C 39.203125 46.933594 40.804688 41.171875 43.394531 36.335938 L 43.761719 35.648438 L 44.402344 36.089844 C 50.222656 40.039063 56.117188 36.253906 56.175781 36.214844 C 56.496094 36.003906 56.933594 36.09375 57.144531 36.414063 C 57.355469 36.738281 57.269531 37.171875 56.945313 37.386719 C 56.878906 37.425781 50.644531 41.4375 44.277344 37.664063 C 41.953125 42.25 40.535156 47.550781 39.582031 55.195313 C 39.535156 55.550781 39.234375 55.8125 38.886719 55.8125 Z "/>
<path style=" stroke:none;fill-rule:nonzero;fill:#472B29;fill-opacity:1;" d="M 35.296875 51.625 C 35.226563 51.625 35.15625 51.613281 35.085938 51.59375 C 34.71875 51.480469 34.511719 51.085938 34.628906 50.71875 C 34.734375 50.371094 37.332031 42.195313 42.578125 36.949219 C 42.851563 36.675781 43.296875 36.675781 43.570313 36.949219 C 43.84375 37.222656 43.84375 37.664063 43.570313 37.9375 C 38.5625 42.945313 35.988281 51.054688 35.964844 51.132813 C 35.871094 51.433594 35.59375 51.625 35.296875 51.625 Z "/>
<path style=" stroke:none;fill-rule:nonzero;fill:#472B29;fill-opacity:1;" d="M 55.90625 30.425781 C 55.824219 30.425781 55.738281 30.40625 55.65625 30.359375 C 55.417969 30.222656 55.335938 29.917969 55.472656 29.675781 L 57.117188 26.824219 C 57.253906 26.585938 57.558594 26.503906 57.800781 26.640625 C 58.039063 26.777344 58.121094 27.082031 57.984375 27.324219 L 56.339844 30.175781 C 56.246094 30.335938 56.078125 30.425781 55.90625 30.425781 Z "/>
<path style=" stroke:none;fill-rule:nonzero;fill:#472B29;fill-opacity:1;" d="M 61.644531 46.53125 C 61.503906 46.53125 61.363281 46.472656 61.265625 46.355469 C 60.46875 45.429688 59.660156 44.628906 58.863281 43.976563 C 58.648438 43.804688 58.617188 43.488281 58.789063 43.273438 C 58.964844 43.058594 59.28125 43.027344 59.496094 43.203125 C 60.339844 43.890625 61.191406 44.734375 62.023438 45.707031 C 62.203125 45.917969 62.179688 46.230469 61.96875 46.410156 C 61.875 46.492188 61.757813 46.53125 61.644531 46.53125 Z "/>
<path style=" stroke:none;fill-rule:nonzero;fill:#472B29;fill-opacity:1;" d="M 51.027344 38.894531 C 50.945313 38.894531 50.859375 38.875 50.777344 38.828125 C 50.539063 38.691406 50.457031 38.386719 50.59375 38.148438 L 54.179688 31.925781 C 54.316406 31.683594 54.621094 31.601563 54.859375 31.738281 C 55.101563 31.875 55.183594 32.183594 55.046875 32.421875 L 51.460938 38.644531 C 51.371094 38.804688 51.199219 38.894531 51.027344 38.894531 Z "/>
<path style=" stroke:none;fill-rule:nonzero;fill:#472B29;fill-opacity:1;" d="M 57.246094 42.523438 C 57.136719 42.523438 57.023438 42.488281 56.929688 42.410156 C 54.085938 40.070313 51.542969 38.949219 51.519531 38.941406 C 51.265625 38.828125 51.148438 38.535156 51.257813 38.28125 C 51.367188 38.027344 51.660156 37.910156 51.914063 38.023438 C 52.023438 38.070313 54.605469 39.203125 57.566406 41.636719 C 57.777344 41.8125 57.808594 42.128906 57.632813 42.339844 C 57.535156 42.460938 57.390625 42.523438 57.246094 42.523438 Z "/>
<path style=" stroke:none;fill-rule:nonzero;fill:#472B29;fill-opacity:1;" d="M 65.109375 70.695313 C 64.871094 70.695313 64.65625 70.523438 64.617188 70.277344 C 64.574219 70.003906 64.757813 69.746094 65.03125 69.703125 C 67.890625 69.238281 68.785156 67.265625 69.214844 65.820313 C 69.769531 63.925781 69.53125 61.03125 68.519531 57.457031 C 68.082031 55.914063 67.179688 54.074219 65.828125 51.992188 C 65.679688 51.761719 65.746094 51.453125 65.976563 51.304688 C 66.207031 51.15625 66.519531 51.21875 66.667969 51.449219 C 68.070313 53.617188 69.015625 55.546875 69.480469 57.183594 C 70.558594 60.992188 70.792969 63.996094 70.171875 66.105469 C 69.882813 67.085938 69.003906 70.070313 65.191406 70.691406 C 65.164063 70.695313 65.136719 70.695313 65.109375 70.695313 Z "/>
<path style=" stroke:none;fill-rule:nonzero;fill:#472B29;fill-opacity:1;" d="M 64.886719 50.285156 C 64.71875 50.285156 64.554688 50.203125 64.460938 50.054688 C 64.089844 49.460938 63.722656 49.039063 62.921875 48.152344 C 62.734375 47.949219 62.75 47.632813 62.953125 47.449219 C 63.160156 47.261719 63.476563 47.277344 63.660156 47.480469 C 64.488281 48.394531 64.894531 48.863281 65.308594 49.519531 C 65.453125 49.753906 65.386719 50.0625 65.152344 50.210938 C 65.066406 50.261719 64.976563 50.285156 64.886719 50.285156 Z "/>
<path style=" stroke:none;fill-rule:nonzero;fill:#472B29;fill-opacity:1;" d="M 35.203125 33.734375 C 37.097656 33.734375 39.78125 35.027344 41.371094 36.15625 C 40.257813 36.613281 38.535156 37.050781 36.753906 37.050781 C 35.3125 37.050781 34.183594 36.734375 33.734375 36.203125 C 33.644531 36.097656 33.367188 35.777344 33.492188 34.992188 C 33.644531 34.238281 33.992188 33.734375 35.203125 33.734375 M 35.203125 32.332031 C 33.679688 32.332031 32.464844 32.976563 32.121094 34.722656 C 31.675781 37.496094 34.035156 38.449219 36.753906 38.449219 C 39.566406 38.449219 42.769531 37.429688 43.65625 36.34375 C 42.574219 34.914063 38.261719 32.332031 35.203125 32.332031 Z "/>
</g>
</svg>
