<?xml version="1.0" encoding="UTF-8"?>
<svg xmlns="http://www.w3.org/2000/svg" xmlns:xlink="http://www.w3.org/1999/xlink" width="96pt" height="96pt" viewBox="0 0 96 96" version="1.1">
<g id="surface1">
<path style=" stroke:none;fill-rule:nonzero;fill:#BCBCBC;fill-opacity:1;" d="M 66.695313 16.125 C 65.71875 14.757813 64.40625 13.667969 63.300781 12.414063 C 63.1875 12.300781 63.09375 12.167969 62.980469 12.054688 C 63.242188 13.613281 63.5625 15.148438 63.5625 16.726563 C 63.5625 18.695313 63.394531 20.644531 62.867188 22.519531 C 63.449219 22.59375 64.050781 22.59375 64.613281 22.632813 C 66.09375 22.726563 67.554688 22.820313 69.019531 22.949219 C 69.542969 23.007813 70.554688 23.042969 71.570313 23.210938 C 70.03125 20.792969 68.34375 18.46875 66.695313 16.125 Z "/>
<path style=" stroke:none;fill-rule:nonzero;fill:#D6E5E5;fill-opacity:1;" d="M 73.988281 57.148438 C 73.875 55.855469 73.6875 54.5625 73.632813 53.269531 C 73.519531 50.230469 73.800781 47.195313 73.726563 44.15625 C 73.667969 41.195313 73.445313 38.210938 73.3125 35.25 C 73.179688 32.304688 73.050781 29.398438 72.65625 26.476563 C 72.636719 26.289063 72.617188 26.117188 72.582031 25.929688 C 72.542969 25.855469 72.507813 25.761719 72.507813 25.667969 C 72.429688 25.632813 72.320313 25.574219 72.28125 25.574219 C 72.074219 25.5 71.457031 25.367188 71.101563 25.292969 C 69.882813 25.085938 68.664063 24.976563 67.425781 24.882813 C 66.167969 24.789063 64.929688 24.710938 63.675781 24.617188 C 62.90625 24.5625 62.0625 24.542969 61.3125 24.320313 C 60.617188 24.113281 60.335938 23.53125 60.582031 22.855469 C 61.179688 21.226563 61.445313 19.445313 61.480469 17.679688 C 61.105469 18.167969 60.542969 18.074219 60.167969 17.738281 C 60.132813 17.738281 60.09375 17.738281 60.039063 17.738281 C 59.832031 17.738281 59.625 17.757813 59.4375 17.757813 C 58.929688 17.773438 58.445313 17.773438 57.9375 17.8125 C 56.417969 17.925781 54.917969 17.945313 53.398438 17.980469 C 50.363281 18.039063 47.324219 18.167969 44.304688 18.320313 C 38.0625 18.65625 31.835938 19.070313 25.59375 19.085938 C 24.261719 19.085938 24.113281 17.023438 25.445313 17.023438 C 32.550781 17.007813 39.617188 16.460938 46.707031 16.125 C 50.175781 15.957031 53.679688 16.085938 57.132813 15.804688 C 58.257813 15.710938 59.4375 15.617188 60.5625 15.695313 C 60.9375 15.710938 61.257813 15.863281 61.460938 16.050781 C 61.460938 16.011719 61.460938 15.976563 61.460938 15.9375 C 61.351563 13.761719 60.710938 11.664063 60.542969 9.507813 C 60.09375 9.507813 59.625 9.523438 59.175781 9.523438 C 54.335938 9.523438 49.5 9.542969 44.664063 9.582031 C 35.25 9.636719 25.835938 9.710938 16.425781 9.710938 C 16.425781 9.769531 16.425781 9.824219 16.425781 9.882813 C 16.5 15.917969 16.929688 21.9375 16.667969 27.976563 C 16.539063 31.011719 16.367188 34.070313 16.554688 37.125 C 16.742188 40.179688 16.949219 43.21875 17.023438 46.273438 C 17.082031 49.273438 17.101563 52.292969 16.855469 55.292969 C 16.632813 58.292969 16.425781 61.292969 16.460938 64.3125 C 16.539063 70.011719 17.625 75.617188 17.738281 81.320313 C 22.613281 81.148438 27.488281 81.429688 32.363281 81.65625 C 37.460938 81.898438 42.542969 81.917969 47.664063 81.863281 C 47.90625 81.863281 48.167969 81.863281 48.414063 81.84375 C 47.773438 79.820313 47.738281 77.570313 48.019531 75.429688 C 47.71875 75.449219 47.417969 75.449219 47.101563 75.46875 C 43.667969 75.582031 40.238281 75.394531 36.804688 75.335938 C 33.523438 75.300781 30.28125 75.882813 27 75.695313 C 25.667969 75.617188 26.082031 73.59375 27.394531 73.667969 C 29.175781 73.78125 30.976563 73.539063 32.738281 73.40625 C 34.40625 73.273438 36.054688 73.273438 37.707031 73.3125 C 41.023438 73.386719 44.324219 73.539063 47.644531 73.386719 C 47.886719 73.367188 48.113281 73.367188 48.355469 73.351563 C 48.375 73.292969 48.375 73.257813 48.394531 73.199219 C 49.21875 69.542969 50.644531 66.132813 53.398438 63.5625 C 49.78125 63.804688 46.164063 64.164063 42.542969 64.40625 C 39.167969 64.632813 35.679688 64.820313 32.304688 64.574219 C 31.199219 64.5 30.074219 64.367188 28.96875 64.351563 C 28.257813 64.332031 27 64.179688 26.476563 64.632813 C 25.460938 65.492188 24.335938 63.789063 25.3125 62.925781 C 26.023438 62.304688 27.242188 62.289063 28.144531 62.289063 C 29.417969 62.289063 30.695313 62.398438 31.96875 62.492188 C 35.289063 62.757813 38.71875 62.585938 42.039063 62.363281 C 46.050781 62.082031 50.0625 61.667969 54.09375 61.445313 C 54.132813 61.445313 54.167969 61.445313 54.207031 61.445313 C 54.9375 61.179688 55.894531 61.179688 56.550781 61.179688 C 56.585938 61.179688 56.625 61.179688 56.664063 61.179688 C 59.492188 59.492188 62.699219 58.386719 65.886719 57.789063 C 68.53125 57.300781 71.34375 57.074219 73.988281 57.617188 C 73.988281 57.488281 73.988281 57.355469 73.988281 57.207031 C 73.96875 57.226563 73.96875 57.1875 73.988281 57.148438 Z M 65.363281 35.042969 C 59.007813 35.042969 52.761719 35.457031 46.460938 36.261719 C 40.050781 37.085938 33.582031 37.105469 27.113281 37.105469 C 25.78125 37.105469 25.632813 35.042969 26.960938 35.042969 C 33.414063 35.042969 39.898438 35.0625 46.3125 34.199219 C 52.480469 33.375 58.59375 33 64.800781 32.980469 C 64.820313 32.980469 64.820313 32.980469 64.835938 32.980469 L 65.210938 32.980469 C 66.523438 32.980469 66.695313 35.042969 65.363281 35.042969 Z M 26.007813 26.605469 C 29.25 26.605469 32.476563 26.53125 35.699219 26.324219 C 38.8125 26.136719 41.886719 25.6875 45.019531 25.613281 C 48.355469 25.539063 51.675781 25.6875 55.011719 25.59375 C 56.605469 25.554688 58.199219 25.386719 59.792969 25.40625 C 61.292969 25.425781 62.773438 25.480469 64.257813 25.480469 C 65.570313 25.480469 65.738281 27.542969 64.40625 27.542969 L 64.03125 27.542969 C 63.992188 27.542969 63.9375 27.542969 63.898438 27.542969 C 62.476563 27.523438 61.03125 27.449219 59.605469 27.46875 C 58.011719 27.488281 56.417969 27.636719 54.804688 27.675781 C 51.601563 27.730469 48.375 27.601563 45.167969 27.695313 C 41.945313 27.789063 38.738281 28.238281 35.511719 28.425781 C 32.398438 28.59375 29.289063 28.667969 26.15625 28.6875 C 24.84375 28.667969 24.675781 26.605469 26.007813 26.605469 Z M 26.195313 43.667969 C 38.886719 43.667969 51.5625 43.105469 64.257813 43.292969 C 65.570313 43.3125 65.738281 45.375 64.40625 45.355469 C 51.710938 45.167969 39.039063 45.730469 26.34375 45.730469 C 25.03125 45.730469 24.863281 43.667969 26.195313 43.667969 Z M 65.550781 54.730469 C 62.117188 54.636719 58.707031 54.898438 55.292969 55.144531 C 51.957031 55.386719 48.617188 55.445313 45.28125 55.5 C 41.90625 55.554688 38.550781 55.648438 35.175781 55.667969 C 32.363281 55.667969 29.570313 55.480469 26.757813 55.480469 C 25.425781 55.480469 25.273438 53.417969 26.605469 53.417969 L 26.773438 53.417969 C 26.792969 53.417969 26.792969 53.417969 26.8125 53.417969 C 29.664063 53.417969 32.53125 53.625 35.382813 53.605469 C 38.738281 53.585938 42.113281 53.476563 45.46875 53.4375 C 48.824219 53.398438 52.144531 53.304688 55.480469 53.0625 C 58.78125 52.820313 62.082031 52.574219 65.382813 52.667969 C 66.695313 52.707031 66.863281 54.769531 65.550781 54.730469 Z "/>
<path style=" stroke:none;fill-rule:nonzero;fill:#1E4384;fill-opacity:1;" d="M 83.398438 68.625 C 80.417969 69.523438 77.851563 71.25 74.960938 72.394531 C 73.3125 73.050781 71.625 73.6875 70.070313 74.550781 C 69.65625 74.773438 68.90625 75.019531 68.398438 75.226563 C 68.289063 75.394531 68.101563 75.523438 67.835938 75.582031 C 67.40625 75.675781 67.011719 75.730469 66.636719 75.394531 C 66.355469 75.148438 66.261719 74.8125 66.300781 74.492188 C 66.28125 74.398438 66.28125 74.304688 66.28125 74.210938 C 66.5625 70.21875 66.824219 66.28125 66.824219 62.289063 C 66.824219 61.445313 66.730469 60.582031 66.710938 59.738281 C 63.957031 60.1875 61.238281 61.070313 58.820313 62.34375 C 57.019531 63.300781 55.257813 64.445313 53.886719 65.960938 C 52.613281 67.367188 51.804688 69.074219 51.1875 70.855469 C 49.949219 74.398438 48.957031 79.425781 51.09375 82.820313 C 51.148438 82.914063 51.1875 83.007813 51.226563 83.101563 C 54.449219 86.15625 58.445313 88.273438 62.90625 88.835938 C 67.367188 89.398438 72.320313 88.667969 76.273438 86.492188 C 79.96875 84.449219 83.363281 81.167969 84.335938 76.914063 C 84.976563 74.15625 84.523438 71.25 83.398438 68.625 Z "/>
<path style=" stroke:none;fill-rule:nonzero;fill:#EF4823;fill-opacity:1;" d="M 81.488281 65.269531 C 79.875 63.039063 77.773438 61.238281 75.320313 60.261719 C 74.960938 60.335938 74.605469 60.242188 74.363281 59.925781 C 73.367188 59.625 72.320313 59.457031 71.230469 59.4375 C 70.425781 59.417969 69.601563 59.457031 68.792969 59.511719 C 68.792969 59.625 68.8125 59.738281 68.8125 59.867188 C 68.851563 60.226563 68.886719 60.601563 68.90625 60.976563 C 68.945313 62.417969 68.90625 63.863281 68.90625 65.304688 C 68.90625 67.875 68.664063 70.460938 68.457031 73.03125 C 68.71875 72.9375 68.980469 72.84375 69.226563 72.710938 C 70.761719 71.925781 72.355469 71.25 73.96875 70.613281 C 76.875 69.449219 79.5 67.726563 82.480469 66.789063 C 82.164063 66.242188 81.824219 65.738281 81.488281 65.269531 Z "/>
<path style=" stroke:none;fill-rule:nonzero;fill:#000000;fill-opacity:1;" d="M 64.257813 25.480469 C 62.757813 25.480469 61.273438 25.40625 59.792969 25.40625 C 58.199219 25.386719 56.605469 25.554688 55.011719 25.59375 C 51.675781 25.6875 48.355469 25.539063 45.019531 25.613281 C 41.90625 25.6875 38.8125 26.136719 35.699219 26.324219 C 32.476563 26.53125 29.230469 26.605469 26.007813 26.605469 C 24.675781 26.605469 24.84375 28.667969 26.15625 28.667969 C 29.269531 28.667969 32.398438 28.59375 35.511719 28.40625 C 38.738281 28.21875 41.945313 27.769531 45.167969 27.675781 C 48.375 27.582031 51.601563 27.710938 54.804688 27.65625 C 56.398438 27.617188 57.992188 27.46875 59.605469 27.449219 C 61.03125 27.429688 62.476563 27.507813 63.898438 27.523438 C 63.9375 27.523438 63.992188 27.523438 64.03125 27.523438 L 64.40625 27.523438 C 65.757813 27.542969 65.585938 25.480469 64.257813 25.480469 Z "/>
<path style=" stroke:none;fill-rule:nonzero;fill:#000000;fill-opacity:1;" d="M 65.195313 32.980469 L 64.820313 32.980469 C 64.800781 32.980469 64.800781 32.980469 64.78125 32.980469 C 58.574219 33 52.445313 33.375 46.292969 34.199219 C 39.882813 35.0625 33.394531 35.042969 26.945313 35.042969 C 25.613281 35.042969 25.78125 37.105469 27.09375 37.105469 C 33.542969 37.105469 40.03125 37.105469 46.445313 36.261719 C 52.742188 35.4375 58.988281 35.042969 65.34375 35.042969 C 66.695313 35.042969 66.523438 32.980469 65.195313 32.980469 Z "/>
<path style=" stroke:none;fill-rule:nonzero;fill:#000000;fill-opacity:1;" d="M 64.257813 43.292969 C 51.5625 43.105469 38.886719 43.667969 26.195313 43.667969 C 24.863281 43.667969 25.03125 45.730469 26.34375 45.730469 C 39.039063 45.730469 51.710938 45.167969 64.40625 45.355469 C 65.757813 45.375 65.585938 43.3125 64.257813 43.292969 Z "/>
<path style=" stroke:none;fill-rule:nonzero;fill:#000000;fill-opacity:1;" d="M 65.382813 52.667969 C 62.082031 52.574219 58.78125 52.820313 55.480469 53.0625 C 52.144531 53.304688 48.804688 53.398438 45.46875 53.4375 C 42.113281 53.476563 38.738281 53.585938 35.382813 53.605469 C 32.511719 53.625 29.664063 53.4375 26.8125 53.417969 C 26.792969 53.417969 26.792969 53.417969 26.773438 53.417969 L 26.605469 53.417969 C 25.273438 53.417969 25.445313 55.480469 26.757813 55.480469 C 29.570313 55.480469 32.363281 55.667969 35.175781 55.667969 C 38.550781 55.648438 41.90625 55.554688 45.28125 55.5 C 48.636719 55.445313 51.957031 55.386719 55.292969 55.144531 C 58.707031 54.898438 62.136719 54.617188 65.550781 54.730469 C 66.863281 54.769531 66.695313 52.707031 65.382813 52.667969 Z "/>
<path style=" stroke:none;fill-rule:nonzero;fill:#000000;fill-opacity:1;" d="M 85.707031 68.90625 C 84.300781 64.894531 81.488281 61.292969 77.8125 59.117188 C 77.269531 58.800781 76.707031 58.539063 76.144531 58.3125 C 76.199219 58.179688 76.21875 58.03125 76.21875 57.863281 C 76.21875 57.523438 76.179688 57.1875 76.03125 56.886719 C 75.9375 55.632813 75.75 54.394531 75.695313 53.117188 C 75.617188 51.65625 75.65625 50.195313 75.710938 48.730469 C 75.882813 42.992188 75.488281 37.273438 75.207031 31.554688 C 75.113281 29.511719 74.8125 27.507813 74.605469 25.5 C 74.925781 25.179688 75.019531 24.695313 74.738281 24.226563 C 74.664063 24.09375 74.570313 24 74.457031 23.925781 C 74.457031 23.851563 74.4375 23.773438 74.4375 23.71875 L 74.25 23.71875 C 72.429688 20.585938 70.292969 17.664063 68.195313 14.699219 C 67.257813 13.367188 65.960938 12.300781 64.855469 11.117188 C 64.257813 10.480469 63.789063 9.75 63.375 8.980469 C 63.09375 8.476563 62.886719 8.101563 62.53125 7.800781 C 62.363281 7.519531 62.042969 7.3125 61.632813 7.3125 C 61.445313 7.3125 61.3125 7.332031 61.125 7.386719 C 61.03125 7.40625 60.957031 7.445313 60.898438 7.5 C 60.523438 7.5 60.132813 7.519531 59.757813 7.519531 C 54.789063 7.519531 49.835938 7.539063 44.867188 7.574219 C 35.082031 7.632813 25.292969 7.707031 15.507813 7.707031 C 15.054688 7.707031 14.773438 7.949219 14.644531 8.269531 C 14.476563 8.457031 14.363281 8.699219 14.363281 9 C 14.382813 15.039063 14.886719 21.054688 14.664063 27.09375 C 14.550781 30.132813 14.363281 33.1875 14.457031 36.242188 C 14.550781 39.300781 14.851563 42.335938 14.945313 45.394531 C 15.039063 48.449219 15.113281 51.542969 14.867188 54.601563 C 14.644531 57.542969 14.4375 60.488281 14.398438 63.449219 C 14.34375 69.375 15.507813 75.207031 15.675781 81.113281 C 15.675781 81.449219 15.695313 81.789063 15.695313 82.125 C 15.695313 82.59375 15.9375 82.875 16.273438 82.988281 C 16.445313 83.269531 16.761719 83.476563 17.195313 83.457031 C 22.425781 83.210938 27.675781 83.53125 32.90625 83.773438 C 38.136719 84.019531 43.351563 84.019531 48.582031 83.960938 C 48.769531 83.960938 48.957031 83.960938 49.125 83.960938 C 49.144531 84 49.179688 84.039063 49.21875 84.074219 C 52.554688 87.488281 56.738281 89.867188 61.445313 90.769531 C 65.925781 91.632813 70.875 91.105469 75.09375 89.398438 C 79.125 87.789063 82.6875 84.9375 84.882813 81.1875 C 87.074219 77.34375 87.132813 72.976563 85.707031 68.90625 Z M 74.382813 59.90625 C 74.605469 60.226563 74.980469 60.300781 75.335938 60.242188 C 77.792969 61.21875 79.875 63.019531 81.507813 65.25 C 81.863281 65.738281 82.179688 66.242188 82.480469 66.75 C 79.5 67.707031 76.875 69.414063 73.96875 70.574219 C 72.355469 71.210938 70.78125 71.886719 69.226563 72.675781 C 69 72.789063 68.738281 72.898438 68.457031 72.992188 C 68.664063 70.425781 68.90625 67.835938 68.90625 65.269531 C 68.90625 63.824219 68.945313 62.382813 68.90625 60.9375 C 68.886719 60.5625 68.851563 60.207031 68.8125 59.832031 C 68.8125 59.71875 68.792969 59.605469 68.792969 59.476563 C 69.617188 59.398438 70.425781 59.382813 71.230469 59.398438 C 72.335938 59.4375 73.386719 59.605469 74.382813 59.90625 Z M 62.980469 12.054688 C 63.09375 12.1875 63.1875 12.300781 63.300781 12.414063 C 64.425781 13.667969 65.71875 14.738281 66.695313 16.125 C 68.34375 18.46875 70.050781 20.792969 71.570313 23.230469 C 70.554688 23.0625 69.542969 23.023438 69.019531 22.96875 C 67.554688 22.835938 66.074219 22.742188 64.613281 22.648438 C 64.050781 22.613281 63.449219 22.59375 62.867188 22.539063 C 63.394531 20.644531 63.582031 18.710938 63.5625 16.742188 C 63.542969 15.148438 63.242188 13.59375 62.980469 12.054688 Z M 48.394531 73.238281 C 48.375 73.273438 48.375 73.332031 48.355469 73.386719 C 48.113281 73.40625 47.886719 73.40625 47.644531 73.425781 C 44.324219 73.574219 41.023438 73.425781 37.707031 73.351563 C 36.039063 73.3125 34.386719 73.3125 32.738281 73.445313 C 30.957031 73.574219 29.175781 73.820313 27.394531 73.707031 C 26.082031 73.632813 25.667969 75.65625 27 75.730469 C 30.261719 75.917969 33.523438 75.335938 36.804688 75.375 C 40.238281 75.429688 43.648438 75.617188 47.101563 75.507813 C 47.398438 75.488281 47.699219 75.488281 48.019531 75.46875 C 47.738281 77.605469 47.773438 79.855469 48.414063 81.882813 C 48.167969 81.882813 47.90625 81.882813 47.664063 81.898438 C 42.5625 81.957031 37.460938 81.9375 32.363281 81.695313 C 27.488281 81.449219 22.613281 81.1875 17.738281 81.355469 C 17.644531 75.65625 16.539063 70.050781 16.460938 64.351563 C 16.425781 61.3125 16.632813 58.3125 16.855469 55.3125 C 17.082031 52.3125 17.082031 49.3125 17.023438 46.292969 C 16.949219 43.238281 16.761719 40.179688 16.554688 37.144531 C 16.367188 34.105469 16.539063 31.050781 16.667969 27.992188 C 16.929688 21.957031 16.5 15.9375 16.425781 9.898438 C 16.425781 9.84375 16.425781 9.789063 16.425781 9.730469 C 25.835938 9.730469 35.25 9.65625 44.664063 9.601563 C 49.5 9.582031 54.335938 9.542969 59.175781 9.542969 C 59.625 9.542969 60.09375 9.542969 60.542969 9.523438 C 60.730469 11.679688 61.351563 13.78125 61.460938 15.957031 C 61.460938 15.992188 61.460938 16.03125 61.460938 16.070313 C 61.238281 15.863281 60.9375 15.730469 60.5625 15.710938 C 59.4375 15.636719 58.257813 15.75 57.132813 15.824219 C 53.679688 16.105469 50.175781 15.992188 46.707031 16.144531 C 39.617188 16.460938 32.53125 17.023438 25.445313 17.042969 C 24.113281 17.042969 24.28125 19.105469 25.59375 19.105469 C 31.835938 19.105469 38.082031 18.675781 44.304688 18.335938 C 47.34375 18.167969 50.363281 18.039063 53.398438 18 C 54.917969 17.980469 56.417969 17.945313 57.9375 17.832031 C 58.445313 17.792969 58.929688 17.792969 59.4375 17.773438 C 59.644531 17.757813 59.851563 17.757813 60.039063 17.757813 C 60.074219 17.757813 60.132813 17.757813 60.167969 17.757813 C 60.542969 18.09375 61.085938 18.1875 61.480469 17.699219 C 61.445313 19.460938 61.179688 21.226563 60.582031 22.875 C 60.335938 23.550781 60.617188 24.132813 61.3125 24.335938 C 62.0625 24.5625 62.90625 24.582031 63.675781 24.636719 C 64.929688 24.730469 66.167969 24.804688 67.425781 24.898438 C 68.644531 24.992188 69.882813 25.105469 71.101563 25.3125 C 71.457031 25.367188 72.09375 25.519531 72.28125 25.59375 C 72.320313 25.613281 72.414063 25.648438 72.507813 25.6875 C 72.523438 25.78125 72.542969 25.875 72.582031 25.949219 C 72.601563 26.136719 72.617188 26.304688 72.65625 26.492188 C 73.050781 29.417969 73.164063 32.324219 73.3125 35.269531 C 73.445313 38.230469 73.667969 41.210938 73.726563 44.175781 C 73.78125 47.210938 73.5 50.25 73.632813 53.289063 C 73.6875 54.582031 73.875 55.875 73.988281 57.167969 C 73.988281 57.207031 73.988281 57.242188 73.988281 57.28125 C 73.988281 57.414063 73.988281 57.542969 73.988281 57.695313 C 71.34375 57.148438 68.53125 57.375 65.886719 57.863281 C 62.679688 58.460938 59.476563 59.570313 56.664063 61.257813 C 56.625 61.257813 56.585938 61.257813 56.550781 61.257813 C 55.894531 61.257813 54.9375 61.257813 54.207031 61.519531 C 54.167969 61.519531 54.132813 61.519531 54.09375 61.519531 C 50.082031 61.761719 46.070313 62.15625 42.039063 62.4375 C 38.71875 62.664063 35.289063 62.832031 31.96875 62.570313 C 30.695313 62.476563 29.417969 62.363281 28.144531 62.363281 C 27.242188 62.363281 26.042969 62.382813 25.3125 63 C 24.320313 63.863281 25.460938 65.585938 26.476563 64.707031 C 27 64.238281 28.257813 64.40625 28.96875 64.425781 C 30.074219 64.445313 31.199219 64.574219 32.304688 64.648438 C 35.679688 64.894531 39.167969 64.707031 42.542969 64.480469 C 46.164063 64.238281 49.78125 63.882813 53.398438 63.636719 C 50.664063 66.148438 49.21875 69.5625 48.394531 73.238281 Z M 84.335938 76.929688 C 83.363281 81.1875 79.96875 84.46875 76.273438 86.511719 C 72.320313 88.707031 67.367188 89.417969 62.90625 88.855469 C 58.445313 88.292969 54.449219 86.175781 51.226563 83.117188 C 51.207031 83.023438 51.148438 82.929688 51.09375 82.835938 C 48.957031 79.425781 49.949219 74.417969 51.1875 70.875 C 51.804688 69.09375 52.632813 67.40625 53.886719 65.980469 C 55.257813 64.460938 57.019531 63.300781 58.820313 62.363281 C 61.257813 61.070313 63.957031 60.1875 66.710938 59.757813 C 66.730469 60.601563 66.824219 61.460938 66.824219 62.304688 C 66.824219 66.300781 66.5625 70.257813 66.28125 74.230469 C 66.28125 74.324219 66.28125 74.4375 66.300781 74.511719 C 66.242188 74.832031 66.335938 75.148438 66.636719 75.414063 C 67.011719 75.730469 67.386719 75.695313 67.835938 75.601563 C 68.101563 75.542969 68.289063 75.414063 68.398438 75.242188 C 68.90625 75.039063 69.636719 74.792969 70.070313 74.570313 C 71.625 73.707031 73.3125 73.070313 74.960938 72.414063 C 77.851563 71.269531 80.417969 69.542969 83.398438 68.644531 C 84.523438 71.25 84.976563 74.15625 84.335938 76.929688 Z "/>
</g>
</svg>
