<?xml version="1.0" encoding="UTF-8"?>
<svg xmlns="http://www.w3.org/2000/svg" xmlns:xlink="http://www.w3.org/1999/xlink" width="96pt" height="96pt" viewBox="0 0 96 96" version="1.1">
<g id="surface1">
<path style=" stroke:none;fill-rule:nonzero;fill:#E65100;fill-opacity:1;" d="M 51.199219 68.800781 C 51.398438 68 51.398438 67 51.398438 66 C 51.398438 65 51.398438 64.199219 51.199219 63.199219 L 56.800781 59.199219 C 57.398438 58.800781 57.601563 58 57.199219 57.398438 L 51.800781 48.199219 C 51.398438 47.601563 50.800781 47.398438 50.199219 47.601563 L 44 50.601563 C 42.601563 49.398438 41 48.601563 39.199219 47.800781 L 38.601563 41 C 38.601563 40.398438 38 39.800781 37.398438 39.800781 L 26.800781 39.800781 C 26.199219 39.800781 25.601563 40.398438 25.601563 41 L 24.800781 48 C 23 48.601563 21.601563 49.601563 20 50.800781 L 13.800781 48 C 13.199219 47.800781 12.398438 48 12.199219 48.601563 L 6.800781 57.800781 C 6.398438 58.398438 6.601563 59.199219 7.199219 59.601563 L 12.800781 63.601563 C 12.601563 64.398438 12.601563 65.398438 12.601563 66.398438 C 12.601563 67.398438 12.601563 68.199219 12.800781 69.199219 L 7.199219 73.199219 C 6.601563 73.601563 6.398438 74.398438 6.800781 75 L 12.199219 84.199219 C 12.601563 84.800781 13.199219 85 13.800781 84.800781 L 20 82 C 21.398438 83.199219 23 84 24.800781 84.800781 L 25.398438 91.601563 C 25.398438 92.199219 26 92.800781 26.601563 92.800781 L 37.199219 92.800781 C 37.800781 92.800781 38.398438 92.199219 38.398438 91.601563 L 39 84.800781 C 40.800781 84.199219 42.199219 83.199219 43.800781 82 L 50 84.800781 C 50.601563 85 51.398438 84.800781 51.601563 84.199219 L 57 75 C 57.398438 74.398438 57.199219 73.601563 56.601563 73.199219 Z M 32 76 C 26.398438 76 22 71.601563 22 66 C 22 60.398438 26.398438 56 32 56 C 37.601563 56 42 60.398438 42 66 C 42 71.601563 37.601563 76 32 76 Z "/>
<path style=" stroke:none;fill-rule:nonzero;fill:#FFA000;fill-opacity:1;" d="M 83.800781 30.601563 C 84 29.601563 84 28.800781 84 28 C 84 27.199219 84 26.398438 83.800781 25.398438 L 88.800781 21.800781 C 89.398438 21.398438 89.398438 20.800781 89.199219 20.199219 L 84.199219 11.601563 C 83.800781 11 83.199219 10.800781 82.601563 11.199219 L 76.800781 13.800781 C 75.398438 12.800781 74 12 72.398438 11.199219 L 71.800781 5 C 72 4.398438 71.601563 4 71 4 L 61.199219 4 C 60.601563 4 60 4.398438 60 5 L 59.398438 11.199219 C 57.800781 11.800781 56.398438 12.601563 55 13.800781 L 49.199219 11.199219 C 48.601563 11 48 11.199219 47.601563 11.601563 L 42.601563 20.199219 C 42.199219 20.800781 42.398438 21.398438 43 21.800781 L 48 25.398438 C 48 26.398438 48 27.199219 48 28 C 48 28.800781 48 29.601563 48.199219 30.601563 L 43.199219 34.199219 C 42.601563 34.601563 42.601563 35.199219 42.800781 35.800781 L 47.800781 44.398438 C 48.199219 45 48.800781 45.199219 49.398438 44.800781 L 55.199219 42.199219 C 56.601563 43.199219 58 44 59.601563 44.800781 L 60.199219 51 C 60.199219 51.601563 60.800781 52 61.398438 52 L 71.199219 52 C 71.800781 52 72.398438 51.601563 72.398438 51 L 73 44.800781 C 74.601563 44.199219 76 43.398438 77.398438 42.199219 L 83.199219 44.800781 C 83.800781 45 84.398438 44.800781 84.800781 44.398438 L 89.800781 35.800781 C 90.199219 35.199219 90 34.601563 89.398438 34.199219 Z M 66 38 C 60.398438 38 56 33.601563 56 28 C 56 22.398438 60.398438 18 66 18 C 71.601563 18 76 22.398438 76 28 C 76 33.601563 71.601563 38 66 38 Z "/>
</g>
</svg>
