<svg xmlns="http://www.w3.org/2000/svg" viewBox="0 0 32 32">
  <path d="M15 4C13.597656 4 12.292969 4.738281 11.570313 5.941406L11.59375 5.898438L9.554688 8.953125L5.023438 10.03125L5.019531 10.03125C3.839844 10.324219 3 11.398438 3 12.617188L3 15C3 16.09375 3.90625 17 5 17L6.1875 17C6.605469 18.15625 7.707031 19 9 19C10.292969 19 11.394531 18.15625 11.8125 17L20.1875 17C20.605469 18.15625 21.707031 19 23 19C24.292969 19 25.394531 18.15625 25.8125 17L27 17C28.09375 17 29 16.09375 29 15L29 11.96875C29 10.75 28.160156 9.675781 26.980469 9.382813L27.050781 9.402344L25.886719 9.019531L24.453125 5.984375L24.429688 5.945313C23.707031 4.738281 22.402344 4 21 4 Z M 15 6L17 6L17 9L11.925781 9L13.269531 6.992188L13.28125 6.96875C13.644531 6.367188 14.296875 6 15 6 Z M 19 6L21 6C21.699219 6 22.339844 6.363281 22.703125 6.960938L23.667969 9L19 9 Z M 9.582031 11L25.511719 11L26.457031 11.3125L26.496094 11.324219C26.796875 11.398438 27 11.65625 27 11.96875L27 15L25.8125 15C25.394531 13.84375 24.292969 13 23 13C21.707031 13 20.605469 13.84375 20.1875 15L11.8125 15C11.394531 13.84375 10.292969 13 9 13C7.707031 13 6.605469 13.84375 6.1875 15L5 15L5 12.617188C5 12.304688 5.203125 12.046875 5.507813 11.96875 Z M 9 15C9.5625 15 10 15.4375 10 16C10 16.5625 9.5625 17 9 17C8.4375 17 8 16.5625 8 16C8 15.4375 8.4375 15 9 15 Z M 23 15C23.5625 15 24 15.4375 24 16C24 16.5625 23.5625 17 23 17C22.4375 17 22 16.5625 22 16C22 15.4375 22.4375 15 23 15 Z M 13 18L13 20L15 20L15 26L5.5 26L5.5 28L26.5 28L26.5 26L17 26L17 20L19 20L19 18Z" fill="#3C58E7" />
</svg>