<?xml version="1.0" encoding="UTF-8"?>
<svg xmlns="http://www.w3.org/2000/svg" xmlns:xlink="http://www.w3.org/1999/xlink" width="100pt" height="100pt" viewBox="0 0 100 100" version="1.1">
<g id="surface1">
<path style=" stroke:none;fill-rule:nonzero;fill:#F1BC19;fill-opacity:1;" d="M 78 13 C 78 13.550781 77.550781 14 77 14 C 76.449219 14 76 13.550781 76 13 C 76 12.449219 76.449219 12 77 12 C 77.550781 12 78 12.449219 78 13 Z "/>
<path style=" stroke:none;fill-rule:nonzero;fill:#E6EDB7;fill-opacity:1;" d="M 87 50 C 87 70.433594 70.433594 87 50 87 C 29.566406 87 13 70.433594 13 50 C 13 29.566406 29.566406 13 50 13 C 70.433594 13 87 29.566406 87 50 Z "/>
<path style=" stroke:none;fill-rule:nonzero;fill:#F1BC19;fill-opacity:1;" d="M 87 15 C 87 17.210938 85.210938 19 83 19 C 80.789063 19 79 17.210938 79 15 C 79 12.789063 80.789063 11 83 11 C 85.210938 11 87 12.789063 87 15 Z "/>
<path style=" stroke:none;fill-rule:nonzero;fill:#88AE45;fill-opacity:1;" d="M 89 24 C 89 25.105469 88.105469 26 87 26 C 85.894531 26 85 25.105469 85 24 C 85 22.894531 85.894531 22 87 22 C 88.105469 22 89 22.894531 89 24 Z "/>
<path style=" stroke:none;fill-rule:nonzero;fill:#FBCD59;fill-opacity:1;" d="M 83 76 C 83 77.105469 82.105469 78 81 78 C 79.894531 78 79 77.105469 79 76 C 79 74.894531 79.894531 74 81 74 C 82.105469 74 83 74.894531 83 76 Z "/>
<path style=" stroke:none;fill-rule:nonzero;fill:#FBCD59;fill-opacity:1;" d="M 19 63 C 19 65.210938 17.210938 67 15 67 C 12.789063 67 11 65.210938 11 63 C 11 60.789063 12.789063 59 15 59 C 17.210938 59 19 60.789063 19 63 Z "/>
<path style=" stroke:none;fill-rule:nonzero;fill:#88AE45;fill-opacity:1;" d="M 27 87 C 27 88.105469 26.105469 89 25 89 C 23.894531 89 23 88.105469 23 87 C 23 85.894531 23.894531 85 25 85 C 26.105469 85 27 85.894531 27 87 Z "/>
<path style=" stroke:none;fill-rule:nonzero;fill:#FFFFFF;fill-opacity:1;" d="M 21 51.5 C 21 52.878906 19.878906 54 18.5 54 C 17.121094 54 16 52.878906 16 51.5 C 16 50.121094 17.121094 49 18.5 49 C 19.878906 49 21 50.121094 21 51.5 Z "/>
<path style=" stroke:none;fill-rule:nonzero;fill:#FFFFFF;fill-opacity:1;" d="M 81 33.5 C 81 34.328125 80.328125 35 79.5 35 C 78.671875 35 78 34.328125 78 33.5 C 78 32.671875 78.671875 32 79.5 32 C 80.328125 32 81 32.671875 81 33.5 Z "/>
<path style=" stroke:none;fill-rule:nonzero;fill:#78CDD4;fill-opacity:1;" d="M 47 73.300781 C 37.417969 73.300781 29.699219 69.308594 29.699219 66 L 29.699219 31.699219 L 64.300781 31.699219 L 64.300781 66 C 64.300781 69.308594 56.582031 73.300781 47 73.300781 Z "/>
<path style=" stroke:none;fill-rule:nonzero;fill:#472B29;fill-opacity:1;" d="M 63.601563 32.398438 L 63.601563 66 C 63.601563 68.65625 56.628906 72.601563 47 72.601563 C 37.371094 72.601563 30.398438 68.65625 30.398438 66 L 30.398438 32.398438 L 63.601563 32.398438 M 65 31 L 29 31 L 29 66 C 29 69.867188 37.058594 74 47 74 C 56.941406 74 65 69.867188 65 66 Z "/>
<path style=" stroke:none;fill-rule:nonzero;fill:#78CDD4;fill-opacity:1;" d="M 64.300781 31 C 64.300781 27.519531 56.554688 24.699219 47 24.699219 C 37.445313 24.699219 29.699219 27.519531 29.699219 31 C 29.699219 34.480469 37.445313 37.300781 47 37.300781 C 56.554688 37.300781 64.300781 34.480469 64.300781 31 Z "/>
<path style=" stroke:none;fill-rule:nonzero;fill:#472B29;fill-opacity:1;" d="M 47 25.398438 C 57.285156 25.398438 63.601563 28.660156 63.601563 31 C 63.601563 33.339844 57.285156 36.601563 47 36.601563 C 36.714844 36.601563 30.398438 33.339844 30.398438 31 C 30.398438 28.660156 36.714844 25.398438 47 25.398438 M 47 24 C 37.058594 24 29 27.132813 29 31 C 29 34.867188 37.058594 38 47 38 C 56.941406 38 65 34.867188 65 31 C 65 27.132813 56.941406 24 47 24 Z "/>
<path style=" stroke:none;fill-rule:nonzero;fill:#472B29;fill-opacity:1;" d="M 34.914063 47.5625 C 34.855469 47.5625 34.796875 47.550781 34.738281 47.53125 C 31.035156 46.117188 29 44.152344 29 42 C 29 41.722656 29.222656 41.5 29.5 41.5 C 29.777344 41.5 30 41.722656 30 42 C 30 43.683594 31.855469 45.359375 35.09375 46.597656 C 35.351563 46.695313 35.480469 46.984375 35.382813 47.242188 C 35.304688 47.441406 35.117188 47.5625 34.914063 47.5625 Z "/>
<path style=" stroke:none;fill-rule:nonzero;fill:#472B29;fill-opacity:1;" d="M 41.34375 49.125 C 41.324219 49.125 41.300781 49.125 41.277344 49.121094 C 39.695313 48.90625 38.191406 48.601563 36.808594 48.210938 C 36.542969 48.136719 36.390625 47.859375 36.464844 47.59375 C 36.539063 47.328125 36.816406 47.179688 37.082031 47.25 C 38.417969 47.625 39.875 47.921875 41.410156 48.132813 C 41.683594 48.167969 41.878906 48.421875 41.839844 48.695313 C 41.804688 48.945313 41.59375 49.125 41.34375 49.125 Z "/>
<path style=" stroke:none;fill-rule:nonzero;fill:#472B29;fill-opacity:1;" d="M 47 49.5 C 46.027344 49.5 45.054688 49.46875 44.097656 49.40625 C 43.824219 49.386719 43.613281 49.148438 43.632813 48.871094 C 43.652344 48.597656 43.890625 48.386719 44.164063 48.40625 C 45.097656 48.46875 46.050781 48.5 47 48.5 C 56.214844 48.5 64 45.523438 64 42 C 64 41.722656 64.222656 41.5 64.5 41.5 C 64.777344 41.5 65 41.722656 65 42 C 65 46.207031 57.09375 49.5 47 49.5 Z "/>
<path style=" stroke:none;fill-rule:nonzero;fill:#472B29;fill-opacity:1;" d="M 33.46875 58.9375 C 33.394531 58.9375 33.320313 58.921875 33.246094 58.886719 C 30.46875 57.53125 29 55.84375 29 54 C 29 53.722656 29.222656 53.5 29.5 53.5 C 29.777344 53.5 30 53.722656 30 54 C 30 55.414063 31.308594 56.832031 33.6875 57.988281 C 33.933594 58.109375 34.039063 58.410156 33.917969 58.65625 C 33.828125 58.835938 33.652344 58.9375 33.46875 58.9375 Z "/>
<path style=" stroke:none;fill-rule:nonzero;fill:#472B29;fill-opacity:1;" d="M 47 61.5 C 43.445313 61.5 40.011719 61.078125 37.074219 60.285156 C 36.808594 60.210938 36.652344 59.9375 36.722656 59.671875 C 36.796875 59.402344 37.066406 59.246094 37.335938 59.320313 C 40.191406 60.09375 43.53125 60.5 47 60.5 C 56.214844 60.5 64 57.523438 64 54 C 64 53.722656 64.222656 53.5 64.5 53.5 C 64.777344 53.5 65 53.722656 65 54 C 65 58.207031 57.09375 61.5 47 61.5 Z "/>
<path style=" stroke:none;fill-rule:nonzero;fill:#AFABD4;fill-opacity:1;" d="M 58.085938 76.117188 C 57.183594 75.867188 56.3125 75.511719 55.488281 75.0625 C 55.945313 73.570313 55.609375 72.226563 54.496094 71.144531 C 53.742188 70.410156 52.871094 70.039063 51.902344 70.039063 C 51.488281 70.039063 51.054688 70.109375 50.617188 70.25 C 50.15625 69.433594 49.792969 68.570313 49.53125 67.683594 C 50.949219 66.941406 51.671875 65.730469 51.636719 64.152344 C 51.597656 62.640625 50.859375 61.492188 49.480469 60.804688 C 49.730469 59.90625 50.082031 59.042969 50.53125 58.222656 C 50.988281 58.371094 51.433594 58.449219 51.863281 58.449219 C 52.855469 58.449219 53.75 58.054688 54.515625 57.273438 C 55.609375 56.164063 55.910156 54.800781 55.398438 53.308594 C 56.203125 52.859375 57.0625 52.5 57.96875 52.234375 C 58.683594 53.65625 59.859375 54.40625 61.398438 54.40625 C 61.515625 54.40625 61.636719 54.398438 61.761719 54.390625 C 63.191406 54.285156 64.269531 53.539063 64.90625 52.21875 C 65.800781 52.472656 66.660156 52.824219 67.484375 53.28125 C 66.980469 54.796875 67.296875 56.167969 68.414063 57.269531 C 69.175781 58.023438 70.054688 58.402344 71.03125 58.402344 C 71.46875 58.402344 71.921875 58.324219 72.386719 58.167969 C 72.738281 58.8125 73.230469 59.980469 73.445313 60.738281 C 72.007813 61.476563 71.273438 62.6875 71.304688 64.277344 C 71.335938 65.773438 72.066406 66.917969 73.421875 67.621094 C 73.164063 68.515625 72.804688 69.378906 72.347656 70.195313 C 71.90625 70.0625 71.480469 69.996094 71.070313 69.996094 C 69.96875 69.996094 69.007813 70.464844 68.214844 71.390625 C 67.320313 72.433594 67.078125 73.679688 67.5 75.03125 C 66.683594 75.484375 65.816406 75.84375 64.910156 76.101563 C 64.222656 74.789063 62.964844 74.023438 61.464844 74.023438 C 60.023438 74.039063 58.761719 74.847656 58.085938 76.117188 Z M 61.460938 61.21875 C 59.839844 61.21875 58.515625 62.53125 58.507813 64.148438 C 58.503906 64.9375 58.808594 65.679688 59.363281 66.238281 C 59.917969 66.796875 60.65625 67.105469 61.449219 67.109375 C 63.0625 67.101563 64.355469 65.84375 64.402344 64.25 C 64.425781 63.453125 64.132813 62.695313 63.578125 62.121094 C 63.027344 61.546875 62.285156 61.226563 61.488281 61.21875 C 61.484375 61.21875 61.460938 61.21875 61.460938 61.21875 Z "/>
<path style=" stroke:none;fill-rule:nonzero;fill:#472B29;fill-opacity:1;" d="M 65.242188 53.054688 C 65.726563 53.214844 66.199219 53.410156 66.660156 53.640625 C 66.332031 55.1875 66.761719 56.621094 67.921875 57.769531 C 68.808594 58.644531 69.882813 59.105469 71.03125 59.105469 C 71.359375 59.105469 71.691406 59.066406 72.023438 58.992188 C 72.230469 59.429688 72.445313 59.964844 72.609375 60.417969 C 71.273438 61.300781 70.570313 62.640625 70.605469 64.292969 C 70.636719 65.839844 71.332031 67.101563 72.589844 67.941406 C 72.421875 68.433594 72.21875 68.914063 71.984375 69.386719 C 71.675781 69.324219 71.371094 69.296875 71.070313 69.296875 C 69.773438 69.296875 68.601563 69.863281 67.683594 70.933594 C 66.761719 72.003906 66.425781 73.300781 66.6875 74.664063 C 66.214844 74.902344 65.726563 75.105469 65.222656 75.273438 C 64.367188 74.046875 63.003906 73.320313 61.464844 73.320313 C 61.457031 73.320313 61.40625 73.320313 61.398438 73.320313 C 59.9375 73.339844 58.605469 74.085938 57.769531 75.289063 C 57.265625 75.125 56.777344 74.925781 56.300781 74.691406 C 56.589844 73.171875 56.140625 71.765625 54.984375 70.640625 C 54.109375 69.789063 53.039063 69.335938 51.902344 69.335938 C 51.597656 69.335938 51.285156 69.367188 50.972656 69.433594 C 50.738281 68.964844 50.535156 68.488281 50.363281 67.996094 C 51.683594 67.113281 52.371094 65.777344 52.335938 64.132813 C 52.296875 62.566406 51.589844 61.300781 50.3125 60.472656 C 50.472656 59.984375 50.667969 59.503906 50.894531 59.039063 C 51.222656 59.109375 51.542969 59.144531 51.863281 59.144531 C 53.035156 59.144531 54.125 58.664063 55.015625 57.761719 C 56.148438 56.609375 56.558594 55.183594 56.222656 53.660156 C 56.679688 53.433594 57.15625 53.234375 57.644531 53.066406 C 58.496094 54.390625 59.796875 55.101563 61.398438 55.101563 C 61.535156 55.101563 61.671875 55.097656 61.8125 55.085938 C 63.285156 54.980469 64.46875 54.269531 65.242188 53.054688 M 61.453125 67.808594 C 61.453125 67.808594 61.457031 67.808594 61.460938 67.808594 C 63.445313 67.796875 65.046875 66.242188 65.101563 64.269531 C 65.128906 63.28125 64.769531 62.347656 64.085938 61.636719 C 63.402344 60.925781 62.480469 60.527344 61.460938 60.519531 C 59.453125 60.519531 57.816406 62.144531 57.808594 64.144531 C 57.796875 66.15625 59.429688 67.800781 61.445313 67.808594 C 61.445313 67.808594 61.449219 67.808594 61.453125 67.808594 M 64.492188 51.386719 C 64.027344 52.742188 63.125 53.589844 61.710938 53.691406 C 61.605469 53.699219 61.5 53.703125 61.398438 53.703125 C 59.898438 53.703125 58.910156 52.851563 58.371094 51.402344 C 56.996094 51.738281 55.714844 52.269531 54.523438 53.015625 C 55.179688 54.394531 55.09375 55.6875 54.015625 56.78125 C 53.367188 57.445313 52.640625 57.746094 51.863281 57.746094 C 51.335938 57.746094 50.789063 57.609375 50.222656 57.351563 C 49.496094 58.550781 48.972656 59.835938 48.65625 61.210938 C 50.054688 61.722656 50.898438 62.683594 50.933594 64.171875 C 50.972656 65.71875 50.136719 66.730469 48.699219 67.289063 C 49.03125 68.652344 49.570313 69.921875 50.316406 71.113281 C 50.859375 70.867188 51.390625 70.738281 51.902344 70.738281 C 52.660156 70.738281 53.367188 71.023438 54.007813 71.648438 C 55.097656 72.707031 55.230469 73.988281 54.628906 75.371094 C 55.828125 76.101563 57.105469 76.625 58.472656 76.9375 C 58.492188 76.898438 58.507813 76.875 58.519531 76.847656 C 59.011719 75.558594 60.132813 74.738281 61.417969 74.722656 C 61.433594 74.722656 61.445313 74.722656 61.460938 74.722656 C 62.8125 74.722656 63.933594 75.484375 64.453125 76.777344 C 64.492188 76.871094 64.53125 76.902344 64.59375 76.902344 C 64.621094 76.902344 64.65625 76.894531 64.695313 76.886719 C 65.933594 76.574219 67.101563 76.09375 68.195313 75.4375 C 68.253906 75.402344 68.3125 75.363281 68.359375 75.332031 C 67.800781 74.074219 67.851563 72.882813 68.742188 71.847656 C 69.417969 71.058594 70.203125 70.695313 71.070313 70.695313 C 71.574219 70.695313 72.101563 70.820313 72.652344 71.054688 C 73.390625 69.859375 73.925781 68.589844 74.246094 67.226563 C 72.867188 66.699219 72.035156 65.753906 72.003906 64.265625 C 71.972656 62.695313 72.820313 61.699219 74.242188 61.148438 C 74.15625 60.292969 73.160156 57.882813 72.652344 57.308594 C 72.097656 57.566406 71.554688 57.703125 71.03125 57.703125 C 70.269531 57.703125 69.550781 57.410156 68.902344 56.773438 C 67.796875 55.683594 67.710938 54.375 68.351563 52.980469 C 67.15625 52.238281 65.867188 51.707031 64.492188 51.386719 Z M 61.449219 66.40625 C 60.203125 66.402344 59.199219 65.390625 59.207031 64.148438 C 59.210938 62.910156 60.214844 61.917969 61.460938 61.917969 C 61.46875 61.917969 61.476563 61.917969 61.484375 61.917969 C 62.738281 61.929688 63.738281 62.96875 63.703125 64.230469 C 63.667969 65.398438 62.71875 66.402344 61.449219 66.40625 Z "/>
<path style=" stroke:none;fill-rule:nonzero;fill:#7777AB;fill-opacity:1;" d="M 69.332031 62.15625 C 68.222656 57.808594 63.800781 55.179688 59.449219 56.285156 C 55.097656 57.394531 52.46875 61.820313 53.578125 66.167969 C 54.6875 70.519531 59.109375 73.148438 63.460938 72.039063 C 67.808594 70.933594 70.4375 66.507813 69.332031 62.15625 Z M 63.054688 70.453125 C 59.582031 71.335938 56.050781 69.238281 55.164063 65.765625 C 54.28125 62.289063 56.378906 58.757813 59.855469 57.871094 C 63.328125 56.988281 66.859375 59.089844 67.746094 62.5625 C 68.628906 66.035156 66.53125 69.570313 63.054688 70.453125 Z "/>
<path style=" stroke:none;fill-rule:nonzero;fill:#472B29;fill-opacity:1;" d="M 54.875 64.414063 C 54.734375 64.414063 54.625 64.300781 54.625 64.164063 C 54.625 60.394531 57.6875 57.332031 61.453125 57.332031 C 62.46875 57.332031 63.441406 57.550781 64.355469 57.980469 C 64.480469 58.039063 64.535156 58.1875 64.476563 58.3125 C 64.414063 58.4375 64.265625 58.488281 64.140625 58.433594 C 63.296875 58.035156 62.390625 57.832031 61.453125 57.832031 C 57.964844 57.832031 55.125 60.671875 55.125 64.164063 C 55.125 64.300781 55.011719 64.414063 54.875 64.414063 Z "/>
<path style=" stroke:none;fill-rule:nonzero;fill:#472B29;fill-opacity:1;" d="M 61.453125 70.992188 C 58.453125 70.992188 55.835938 69.070313 54.9375 66.210938 C 54.894531 66.078125 54.96875 65.9375 55.097656 65.898438 C 55.234375 65.859375 55.371094 65.929688 55.410156 66.0625 C 56.242188 68.710938 58.671875 70.492188 61.453125 70.492188 C 62.882813 70.492188 64.230469 70.027344 65.355469 69.148438 C 65.464844 69.0625 65.617188 69.082031 65.707031 69.191406 C 65.789063 69.300781 65.769531 69.457031 65.664063 69.542969 C 64.453125 70.492188 62.996094 70.992188 61.453125 70.992188 Z "/>
<path style=" stroke:none;fill-rule:nonzero;fill:#472B29;fill-opacity:1;" d="M 66.597656 68.519531 C 66.542969 68.519531 66.488281 68.5 66.441406 68.464844 C 66.335938 68.378906 66.316406 68.222656 66.402344 68.113281 C 67.304688 66.980469 67.785156 65.613281 67.785156 64.164063 C 67.785156 63.367188 67.640625 62.59375 67.351563 61.855469 C 67.300781 61.726563 67.363281 61.585938 67.492188 61.535156 C 67.621094 61.484375 67.765625 61.546875 67.816406 61.675781 C 68.128906 62.46875 68.285156 63.304688 68.285156 64.164063 C 68.285156 65.707031 67.753906 67.222656 66.792969 68.425781 C 66.742188 68.484375 66.671875 68.519531 66.597656 68.519531 Z "/>
<path style=" stroke:none;fill-rule:nonzero;fill:#472B29;fill-opacity:1;" d="M 66.875 60.683594 C 66.796875 60.683594 66.71875 60.644531 66.667969 60.574219 C 66.328125 60.078125 65.914063 59.636719 65.445313 59.253906 C 65.339844 59.164063 65.324219 59.007813 65.410156 58.898438 C 65.496094 58.792969 65.652344 58.777344 65.761719 58.863281 C 66.269531 59.277344 66.710938 59.757813 67.082031 60.292969 C 67.160156 60.40625 67.132813 60.5625 67.015625 60.640625 C 66.972656 60.667969 66.925781 60.683594 66.875 60.683594 Z "/>
</g>
</svg>
